<svg width="815" height="317" viewBox="0 0 815 317" fill="none" xmlns="http://www.w3.org/2000/svg">
<g clip-path="url(#clip0)">
<path d="M780.198 41.7246L779.992 33.2337L754.406 33.0703C756.004 61.8564 756.004 72.2507 756.004 120.863C765.592 125.022 776.153 129.34 780.312 132.376L800.302 110.149C794.705 109.67 785.269 106.474 779.992 103.434C779.992 74.8076 779.992 65.855 780.312 56.0999L780.198 41.7246Z" fill="#F74700"/>
<path d="M423.985 103.434L399.996 120.863C409.585 125.022 419.35 129.34 423.505 132.376L443.495 110.149C437.898 109.67 429.262 106.474 423.985 103.434Z" fill="#B53A25"/>
<path d="M239.908 51.6219L255.814 29.878L255.583 29.7146L213.203 48.5856C214.805 67.4531 214.805 83.604 214.805 115.909C225.519 119.105 242.788 125.821 256.709 132.376L275.42 110.149C264.387 108.551 246.957 104.712 238.8 99.9146C238.8 79.4455 238.8 68.0923 239.919 51.6183L239.908 51.6219Z" fill="#F74700"/>
<path d="M156.377 110.359L153.387 109.35C144.591 107.113 135.958 104.233 128.763 99.9147C128.763 79.4456 129.118 68.0533 130.233 51.5829H130.293L146.047 30.0733L145.553 29.7181L103.177 48.5857C104.775 67.4532 104.775 83.604 104.775 115.909C113.731 118.147 126.362 125.821 138.035 132.376C138.035 132.376 152.428 115.267 155.947 111.108L156.377 110.359Z" fill="#F74700"/>
<path d="M541.845 113.526L515.137 109.847C505.385 107.45 495.31 104.57 487.476 99.9324C487.476 79.6231 487.476 68.27 488.595 52.1191L488.705 52.1369L507.466 29.7181L461.894 48.5892C463.492 67.4567 463.492 83.6076 463.492 115.913C472.444 118.15 489.557 127.586 496.273 132.38L541.845 113.526Z" fill="#F74700"/>
<path d="M730.663 78.4761H711.046H691.539C691.699 69.3602 692.018 61.3664 692.658 51.6113L692.775 51.6468L708.35 29.7181L665.97 48.5892C667.572 67.4567 667.572 83.6076 667.572 115.913C678.282 119.109 695.555 125.824 709.476 132.38L728.187 110.153C717.154 108.555 699.725 104.716 691.567 99.9182V85.5217L711.877 93.519C718.691 87.6559 722.211 84.4599 730.68 78.4868" fill="#F74700"/>
<path d="M28.1681 33.2337L67.6645 38.0279L73.1049 10.8434L25.2667 6.05994L28.1574 33.3793L28.1681 33.2337Z" fill="#B53A25"/>
<path d="M78.3821 142.934C76.7805 114.148 76.7805 93.5189 76.7805 61.2172C67.8244 58.9799 49.1166 49.5444 42.4013 44.7432C42.4013 44.7432 33.2143 54.9635 27.2945 61.5581V68.4261C35.7393 70.9759 44.3403 74.0086 51.1976 78.6323C51.1976 104.219 51.1976 117.34 49.5961 146.105L78.3821 142.934Z" fill="#B53A25"/>
<path d="M755.905 121.027C765.45 125.16 776.146 129.361 780.298 132.39L800.287 110.163C795 109.709 785.628 106.289 780.23 103.416L755.905 121.027Z" fill="#B53A25"/>
<path d="M455.164 263.742L449.802 239.129L422.032 243.863C416.666 229.977 414.297 222.087 410.828 208.201C418.715 203.311 435.757 192.423 443.016 186.429C455.8 189.582 468.737 193.372 479.149 193.372L472.522 219.089C462.423 216.88 447.906 211.358 438.431 207.257L447.423 233.763L471.571 226.348C475.832 239.132 478.673 250.961 481.514 266.121C471.418 272.908 462.107 282.372 456.428 287.429C439.702 284.275 430.551 282.539 413.036 282.539C415.561 271.335 420.139 262.343 424.4 255.549L455.164 263.742Z" fill="#B53A25"/>
<path d="M530.425 189.575H544.31L542.101 205.201H529.952C529.636 218.457 529.636 233.127 529.636 258.848C534.846 261.846 543.365 265.003 548.887 265.475L529.164 287.407C525.062 284.41 515.435 280.149 505.968 276.043C505.968 246.696 505.968 224.448 505.655 205.197H498.08C500.921 198.254 502.342 196.518 505.183 189.572C505.027 183.105 504.71 176.787 504.394 170.637L531.217 173.794C530.904 179.635 530.585 184.685 530.425 189.575Z" fill="#B53A25"/>
<path d="M505.968 276.043C505.968 246.696 505.968 224.448 505.655 205.197H498.08C500.921 198.254 502.342 196.518 505.183 189.572C505.027 183.105 504.71 176.787 504.394 170.637L531.217 173.794C530.904 179.632 530.588 184.682 530.428 189.572H544.313L542.105 205.197H529.956C529.64 218.454 529.64 233.124 529.64 258.845" fill="#F74700"/>
<path d="M425.618 243.245L450.42 232.839L447.433 233.756L438.442 207.25L442.071 187.178C434.379 193.293 418.399 203.514 410.82 208.194C414.29 222.079 416.659 229.97 422.024 243.855L425.618 243.245Z" fill="#F74700"/>
<path d="M455.164 263.742L424.397 255.539C420.135 262.325 415.561 271.317 413.033 282.528C430.547 282.528 439.699 284.264 456.425 287.418C462.029 282.446 471.169 273.156 481.113 266.395L455.164 263.742Z" fill="#F74700"/>
<path d="M393.118 197.246L392.794 234.505C384.161 240.585 380.642 243.784 373.767 249.701L353.458 241.703V256.096C361.626 260.894 379.026 264.733 390.078 266.331L371.367 288.558C357.457 282.002 340.183 275.287 329.462 272.087C329.462 239.771 329.462 223.631 327.864 204.764L370.244 185.896C376.967 190.69 383.199 192.612 393.118 197.246ZM372.965 234.665V215.158C367.208 212.282 361.931 210.186 354.576 207.804C353.937 217.555 353.618 225.56 353.458 234.665H372.965Z" fill="#F74700"/>
<path d="M355.61 207.804L355.585 208.137C362.41 210.396 367.482 212.417 372.965 215.158V234.665H392.571L392.794 234.505L393.118 197.246C383.654 192.825 377.546 190.854 371.171 186.532L355.61 207.804Z" fill="#B53A25"/>
<path d="M295.334 290.142L295.561 290.008C295.245 253.275 295.561 240.444 296.507 201.189H305.04L311.834 183.179H296.984L298.833 167.86C308.472 164.8 316.073 159.705 323.337 158.627C323.024 158.444 303.82 146.801 299.721 141.581C295.611 145.001 281.503 149.505 272.025 154.194C272.498 163.378 272.974 173.1 273.291 183.183H273.134L266.34 201.193H273.923C274.012 204.338 274.098 207.354 274.179 210.276H271.001C271.321 232.541 271.321 276.533 271.321 310.474C280.92 315.22 279.818 313.186 283.978 316.655L306.732 295.581C301.129 295.03 300.617 294.053 295.334 290.588V290.142Z" fill="#B53A25"/>
<path d="M298.656 170.523L307.356 165.729L322.827 175.783L333.649 159.255C333.643 159.159 333.605 158.805 333.593 158.725L302.481 138.541C293.637 144.102 276.988 151.709 269.891 154.72L298.656 170.523Z" fill="#B53A25"/>
<path d="M297.024 183.22L298.656 170.346L302.207 138.74C299.294 141.174 286.684 146.795 280.243 150.089V149.968L269.725 154.669C270.042 161.793 270.366 169.103 270.526 176.575C270.423 176.689 270.419 179.386 270.462 183.204H258.366L252.135 201.231H270.779C270.893 206.399 270.992 210.322 270.992 210.322C271.313 232.609 271.313 276.644 271.313 310.618L295.362 290.712V290.27L295.589 290.136C295.273 253.367 295.589 240.524 296.536 201.231H311.886L318.898 183.22H297.024Z" fill="#F74700"/>
<path d="M28.1574 33.3793L25.2667 6.05994H25.1282C17.7737 12.1396 8.81756 19.171 0.823802 24.1284C2.42184 52.9145 1.78262 98.97 0.18103 129.194H28.8072C28.0473 114.759 27.4933 98.1212 27.2944 81.4981V52.4209L28.1574 33.3793Z" fill="#F74700"/>
<path d="M325.865 50.063C326.511 31.5967 326.575 17.5588 327.229 6.04578L300.044 9.24186C301.642 38.0066 301.326 80.5607 301.326 129.177H325.645V86.0046L325.865 50.063Z" fill="#F74700"/>
<path d="M371.203 82.8049C365.77 80.4043 359.69 77.5278 354.736 74.971L367.844 69.9993V41.3873C355.695 37.3887 351.537 34.9952 342.74 29.7146C342.74 29.7146 331.597 41.9946 325.989 48.3086L325.95 52.57C333.628 53.9905 336.984 54.651 343.862 56.5651V65.0525C343.862 66.647 332.889 75.3971 325.691 81.7893L325.659 85.582L326.014 85.8625C335.247 89.2148 342.279 92.0842 347.225 94.3179C347.225 102.315 347.066 122.941 347.066 129.659L371.214 132.536C370.39 120.227 370.39 96.8783 371.203 82.8049Z" fill="#B53A25"/>
<path d="M239.908 51.6219C249.983 54.9778 256.382 57.5382 265.015 62.8153L278.449 41.0819C268.648 36.4973 262.444 34.5655 255.814 29.8885L239.908 51.6219Z" fill="#B53A25"/>
<path d="M178.497 103.434C178.235 74.8396 178.334 68.0924 178.334 46.185C169.58 43.9939 153.057 34.9419 146.05 30.0732L130.276 51.6397L130.297 51.7178C140.127 53.4934 146.306 56.1674 154.349 59.637C154.349 74.1969 153.955 87.1374 153.387 109.354L156.377 110.362L156.001 111.197C162.233 121.392 170.83 129.51 174.822 132.38L194.808 110.153C189.371 109.35 183.771 106.474 178.497 103.434Z" fill="#B53A25"/>
<path d="M399.996 120.863C399.996 91.1218 399.996 68.5717 399.68 49.0615H392.003C394.879 42.0265 396.321 40.2687 399.197 33.2337C399.037 26.6747 398.718 20.279 398.398 14.0573L425.583 17.2533C425.267 23.1696 424.944 28.2869 424.784 33.2337H438.854L436.616 49.0615H424.304C423.985 62.4956 423.985 77.368 423.985 103.434L399.996 120.863Z" fill="#F74700"/>
<path d="M488.645 52.2114L490.211 52.3996C499.462 54.1326 508.869 56.4409 516.277 59.6192C516.277 74.6479 516.277 86.4804 515.155 109.83L541.845 113.526C540.247 84.7404 540.247 68.1101 540.247 46.2028C531.291 43.962 514.178 34.5264 507.463 29.7323L488.645 52.2114Z" fill="#B53A25"/>
<path d="M590.919 48.8945C591.85 28.3367 591.523 11.6851 591.896 1.25525L566.629 9.25255C567.109 38.0172 566.789 94.0054 566.789 115.916C575.745 118.154 592.858 127.589 599.574 132.383L641.961 113.526V113.477L615.167 110.533V110.472C605.142 108.697 598.92 105.998 590.788 102.489C590.788 94.6766 590.788 74.0264 590.948 52.5984L590.919 48.8945Z" fill="#F74700"/>
<path d="M641.957 113.459C640.363 94.6127 640.363 78.4583 640.363 46.185C631.403 43.9442 618.771 36.2701 607.099 29.7146C607.099 29.7146 596.161 42.6622 591.008 48.8306V52.5949C600.103 54.8321 608.885 57.8649 616.385 62.1831C616.385 82.464 616.009 94.1936 615.174 110.522L641.957 113.459Z" fill="#B53A25"/>
<path d="M692.697 51.7711L693.72 52.0942C700.548 54.3528 705.414 56.0858 710.897 58.8415V78.3518L730.652 78.5009C730.73 78.4441 731.007 78.2204 731.067 78.1671L731.192 41.082C721.728 36.6572 714.785 33.9796 708.411 29.6436L692.697 51.7711Z" fill="#B53A25"/>
<path d="M789.733 30.0342L780.458 41.5471L780.23 41.7993V55.9721L781.37 56.5581C786.313 58.6408 791.14 60.9963 795.824 63.6143L815 41.7069C807.482 38.0279 797.567 33.8695 789.733 30.0342Z" fill="#B53A25"/>
<path d="M113.482 244.516L137.431 212.683L141.412 195.772C134.63 198.123 128.117 202.012 122.236 205.538L114.008 191.688C122.325 189.337 128.024 187.072 136.164 184L158.32 196.845L149.367 221.802L131.281 241.156C139.779 241.156 148.461 241.245 156.331 240.07L151.807 253.635H118.635L113.482 244.516Z" fill="#677662"/>
<path d="M217.752 195.14C217.752 207.53 217.845 228.521 218.75 244.789L192.976 255.443C189.176 252.73 179.499 247.392 174.435 246.128C174.435 227.857 174.346 207.15 173.441 196.479L199.215 185.825C203.011 188.538 212.688 193.872 217.752 195.14ZM203.647 242.708C204.279 229.505 204.187 211.238 204.187 202.736C199.758 200.836 194.059 199.48 188.544 198.475C187.912 207.878 188 225.606 188 237.09C192.432 239.725 198.128 241.369 203.647 242.708Z" fill="#677662"/>
<path d="M586.331 244.516L610.298 212.683L614.276 195.772C607.493 198.123 600.983 202.012 595.099 205.538L586.871 191.688C595.191 189.337 600.888 187.072 609.027 184L631.183 196.845L622.23 221.802L604.144 241.156C612.646 241.156 621.328 241.245 629.194 240.07L624.674 253.635H591.488L586.331 244.516Z" fill="#677662"/>
<path d="M650.995 255.549C650.995 248.497 650.359 216.028 650.359 203.823L658.41 198.574H646.29L648.644 185.825H664.919L663.925 198.485C664.017 218.29 664.198 245.059 664.919 253.742L650.995 255.549Z" fill="#677662"/>
</g>
<defs>
<clipPath id="clip0">
<rect width="815" height="315.702" fill="white" transform="translate(0 0.953369)"/>
</clipPath>
</defs>
</svg>
