<svg width="500" height="100" viewBox="0 0 500 100" fill="none" xmlns="http://www.w3.org/2000/svg">
<path d="M234.345 12.7469C234.303 10.6223 235.961 8.84075 238.085 8.79535C240.153 8.75116 241.824 10.3164 241.984 12.3781C242.148 14.4898 240.616 16.3552 238.507 16.5404C236.316 16.7326 234.387 14.9457 234.345 12.7469Z" stroke="#A88771" stroke-width="3.16122" stroke-linecap="round" stroke-linejoin="round"/>
<path d="M238.356 16.9653V40.253" stroke="#A88771" stroke-width="3.16122" stroke-linecap="round" stroke-linejoin="round"/>
<path d="M234.345 45.097C234.303 42.9724 235.961 41.1909 238.085 41.1454C240.153 41.1012 241.824 42.6665 241.984 44.7282C242.148 46.8399 240.616 48.7053 238.507 48.8904C236.316 49.0826 234.387 47.2958 234.345 45.097Z" stroke="#A88771" stroke-width="3.16122" stroke-linecap="round" stroke-linejoin="round"/>
<path d="M237.724 50.6851V73.9727" stroke="#A88771" stroke-width="3.16122" stroke-linecap="round" stroke-linejoin="round"/>
<path d="M234.345 79.3436C234.303 77.219 235.961 75.4374 238.085 75.392C240.153 75.3478 241.824 76.9131 241.984 78.9747C242.148 81.0864 240.616 82.9519 238.507 83.137C236.316 83.3292 234.387 81.5424 234.345 79.3436Z" stroke="#A88771" stroke-width="3.16122" stroke-linecap="round" stroke-linejoin="round"/>
<path d="M238.604 17.0332C238.604 17.0332 237.723 22.2338 240.673 25.3424C243.624 28.4509 254.267 31.5068 258.64 34.0357C263.013 36.5647 263.329 42.6237 263.329 42.6237" stroke="#A88771" stroke-width="3.16122" stroke-linecap="round" stroke-linejoin="round"/>
<path d="M259.642 45.0477C259.601 42.9231 261.257 41.1415 263.383 41.0961C265.449 41.052 267.121 42.6172 267.28 44.6788C267.445 46.7906 265.914 48.656 263.804 48.8411C261.612 49.0333 259.684 47.2465 259.642 45.0477Z" stroke="#A88771" stroke-width="3.16122" stroke-linecap="round" stroke-linejoin="round"/>
<path d="M238.635 49.606C238.635 49.606 237.756 54.8067 240.706 57.9151C243.656 61.0237 254.299 64.0796 258.672 66.6086C263.045 69.1375 263.361 75.1966 263.361 75.1966" stroke="#A88771" stroke-width="3.16122" stroke-linecap="round" stroke-linejoin="round"/>
<path d="M263.75 49.5259V72.8135" stroke="#A88771" stroke-width="3.16122" stroke-linecap="round" stroke-linejoin="round"/>
<path d="M259.673 77.6199C259.632 75.4953 261.29 73.7137 263.414 73.6684C265.482 73.6241 267.154 75.1895 267.313 77.2511C267.476 79.3628 265.945 81.2282 263.836 81.4134C261.645 81.6056 259.717 79.8188 259.673 77.6199Z" stroke="#A88771" stroke-width="3.16122" stroke-linecap="round" stroke-linejoin="round"/>
<path d="M265.437 72.9188C265.437 72.9188 265.615 72.2841 269.372 68.1757C273.13 64.0674 275.711 62.2761 281.928 61.1696C288.145 60.0632 294.257 62.3289 294.257 62.3289" stroke="#A88771" stroke-width="3.16122" stroke-linecap="round" stroke-linejoin="round"/>
<path d="M265.529 71.2872C265.529 71.2872 274.913 53.6722 284.193 45.3108C294.836 35.7218 298.894 34.51 310.378 34.51C320.442 34.51 328.869 37.8455 329.872 46.786C330.373 51.2435 330.442 55.4713 326.606 57.7976C322.467 60.3087 317.557 58.3999 314.646 54.531C311.789 50.7329 312.703 46.6978 314.646 42.3603C317.901 35.0965 325.503 34.1954 333.455 34.51C343.152 34.8934 354.254 48.1049 354.254 48.1049" stroke="#A88771" stroke-width="3.16122" stroke-linecap="round" stroke-linejoin="round"/>
<path d="M351.368 51.5247C351.327 49.4001 352.984 47.6185 355.109 47.5732C357.176 47.5289 358.848 49.0943 359.007 51.1559C359.171 53.2676 357.641 55.133 355.53 55.3182C353.339 55.5104 351.411 53.7236 351.368 51.5247Z" stroke="#A88771" stroke-width="3.16122" stroke-linecap="round" stroke-linejoin="round"/>
<path d="M300.631 35.3005C300.631 35.3005 305.286 31.0227 306.791 27.4181C308.253 23.9229 307.586 16.4912 307.586 16.4912" stroke="#A88771" stroke-width="3.16122" stroke-linecap="round" stroke-linejoin="round"/>
<path d="M303.161 33.8253C303.161 33.8253 313.714 32.0707 316.328 26.6805C317.407 24.4574 318.071 18.1772 318.071 18.1772" stroke="#A88771" stroke-width="3.16122" stroke-linecap="round" stroke-linejoin="round"/>
<path d="M360.801 51.5278H444.679" stroke="#A88771" stroke-width="3.16122" stroke-linecap="round" stroke-linejoin="round"/>
<path d="M439.577 38.3905C437.068 39.7203 437.438 42.5707 436.307 45.1751C435.268 47.5664 432.885 47.8613 433.257 50.4422C433.608 52.8817 435.617 52.8644 436.878 54.9824C438.326 57.4147 437.484 60.1926 439.926 61.623C442.494 63.127 443.593 60.6064 446.568 60.4961C449.139 60.4007 451.44 62.4776 453.631 61.1275C455.889 59.7368 454.368 56.9683 455.64 54.6419C456.803 52.5158 459.46 52.2505 459.556 49.8292C459.662 47.1839 456.691 46.8014 455.322 44.5352C453.834 42.0706 454.644 39.4268 452.172 38.273C449.7 37.1193 448.409 39.4763 445.681 39.4789C442.869 39.4816 442.062 37.0738 439.577 38.3905Z" stroke="#B53A25" stroke-width="3.58272" stroke-linecap="round" stroke-linejoin="round"/>
<path d="M441.072 41.0351C439.112 42.0741 439.401 44.3013 438.517 46.3363C437.705 48.2048 435.843 48.4352 436.134 50.4516C436.408 52.3579 437.978 52.3444 438.963 53.9993C440.094 55.8997 439.436 58.0703 441.345 59.1879C443.352 60.3631 444.21 58.3937 446.534 58.3075C448.544 58.2329 450.341 59.8556 452.054 58.8007C453.818 57.7141 452.629 55.5509 453.623 53.7332C454.531 52.072 456.608 51.8646 456.683 49.9727C456.766 47.9058 454.444 47.607 453.375 45.8363C452.212 43.9105 452.845 41.8447 450.913 40.9432C448.981 40.0418 447.973 41.8835 445.841 41.8855C443.644 41.8876 443.014 40.0062 441.072 41.0351Z" stroke="#B53A25" stroke-width="3.58272" stroke-linecap="round" stroke-linejoin="round"/>
<path d="M441.937 42.5943C440.314 43.4547 440.554 45.2988 439.822 46.9839C439.15 48.5311 437.608 48.7219 437.848 50.3918C438.075 51.9702 439.375 51.959 440.191 53.3293C441.127 54.9029 440.583 56.7003 442.163 57.6258C443.825 58.5989 444.535 56.9681 446.46 56.8967C448.124 56.835 449.612 58.1787 451.031 57.3053C452.491 56.4054 451.507 54.6141 452.33 53.1091C453.082 51.7334 454.802 51.5617 454.864 49.9951C454.933 48.2835 453.009 48.0361 452.124 46.5699C451.161 44.9753 451.686 43.2647 450.086 42.5182C448.487 41.7717 447.651 43.2967 445.886 43.2984C444.067 43.3002 443.545 41.7424 441.937 42.5943Z" stroke="#B9C6B4" stroke-width="3.05585" stroke-linecap="round" stroke-linejoin="round"/>
<path d="M443.033 44.3888C441.794 45.0451 441.977 46.452 441.418 47.7375C440.905 48.9179 439.729 49.0634 439.913 50.3373C440.086 51.5414 441.078 51.5329 441.701 52.5783C442.415 53.7788 441.999 55.15 443.204 55.856C444.472 56.5984 445.015 55.3543 446.483 55.2998C447.752 55.2528 448.888 56.2779 449.969 55.6115C451.084 54.925 450.333 53.5585 450.961 52.4102C451.535 51.3609 452.846 51.2298 452.895 50.0348C452.946 48.7291 451.479 48.5402 450.804 47.4217C450.07 46.2053 450.47 44.9002 449.25 44.3308C448.029 43.7613 447.392 44.9246 446.045 44.926C444.658 44.9273 444.259 43.7389 443.033 44.3888Z" stroke="#B9C6B4" stroke-width="3.05585" stroke-linecap="round" stroke-linejoin="round"/>
<path d="M443.013 48.0267C441.822 49.9235 442.569 52.5202 444.559 53.5496C446.537 54.5737 449.063 53.7086 449.942 51.661C450.756 49.7653 449.977 47.6581 448.156 46.6902C446.324 45.7165 444.116 46.2693 443.013 48.0267Z" stroke="#B53A25" stroke-width="2.21286" stroke-linecap="round" stroke-linejoin="round"/>
<path d="M443.7 48.4028C442.768 49.887 443.353 51.9188 444.909 52.7243C446.457 53.5256 448.435 52.8488 449.122 51.2465C449.759 49.7631 449.15 48.1144 447.724 47.357C446.29 46.5951 444.564 47.0276 443.7 48.4028Z" stroke="#B53A25" stroke-width="2.21286" stroke-linecap="round" stroke-linejoin="round"/>
<path d="M445.789 51.0859C445.205 50.7837 445.002 50.0113 445.331 49.4874C445.646 48.9857 446.27 48.8136 446.826 49.1091C447.379 49.4033 447.586 50.0062 447.354 50.5484C447.111 51.1153 446.371 51.3873 445.789 51.0859Z" stroke="#B9C6B4" stroke-width="2.21286" stroke-linecap="round" stroke-linejoin="round"/>
<path d="M389.268 40.7506C384.132 45.8552 384.527 51.4958 384.527 51.4958C384.527 51.4958 385.791 47.8613 389.268 47.5848C392.744 47.3083 396.356 47.1169 399.104 44.1084C401.329 41.6724 401.987 36.168 401.987 36.168C401.987 36.168 393.013 37.0281 389.268 40.7506Z" stroke="#A88771" stroke-width="1.89673" stroke-linecap="round" stroke-linejoin="round"/>
<path d="M389.663 41.7067C384.895 45.9048 384.691 50.3825 384.691 50.3825C384.691 50.3825 386.09 47.4571 389.017 47.1448C391.943 46.8325 394.976 46.5842 397.553 44.1174C399.64 42.1199 400.71 37.7227 400.71 37.7227C400.71 37.7227 393.139 38.6454 389.663 41.7067Z" stroke="#A88771" stroke-width="1.89673" stroke-linecap="round" stroke-linejoin="round"/>
<path d="M388.899 42.2408C384.664 46.0662 384.691 50.3825 384.691 50.3825C384.691 50.3825 385.851 47.6237 388.561 47.4637C391.269 47.3035 394.08 47.2105 396.358 44.9519C398.204 43.123 398.987 38.9263 398.987 38.9263C398.987 38.9263 391.986 39.4513 388.899 42.2408Z" stroke="#A88771" stroke-width="1.89673" stroke-linecap="round" stroke-linejoin="round"/>
<path d="M389.544 43.1437C385.672 46.4162 385.213 49.573 385.213 49.573C385.213 49.573 386.465 47.4241 388.687 47.0048C390.908 46.5855 393.205 46.2041 395.312 44.2966C397.018 42.7519 398.123 39.5923 398.123 39.5923C398.123 39.5923 392.368 40.7574 389.544 43.1437Z" stroke="#A88771" stroke-width="1.89673" stroke-linecap="round" stroke-linejoin="round"/>
<path d="M390.37 43.7666C387.555 46.0799 387.082 48.1461 387.082 48.1461C387.082 48.1461 388.046 46.6922 389.588 46.3087C391.13 45.9251 392.72 45.5623 394.257 44.2216C395.503 43.1358 396.418 41.0352 396.418 41.0352C396.418 41.0352 392.422 42.0797 390.37 43.7666Z" stroke="#A88771" stroke-width="1.89673" stroke-linecap="round" stroke-linejoin="round"/>
<path d="M391.697 44.1513C389.46 45.9024 388.897 47.2382 388.897 47.2382C388.897 47.2382 389.737 46.2276 390.863 45.8171C391.989 45.4066 393.148 45.0034 394.378 43.9989C395.374 43.1856 396.253 41.7788 396.253 41.7788C396.253 41.7788 393.328 42.8744 391.697 44.1513Z" stroke="#A88771" stroke-width="1.89673" stroke-linecap="round" stroke-linejoin="round"/>
<path d="M389.252 63.0606C384.117 57.9559 384.512 52.3154 384.512 52.3154C384.512 52.3154 385.776 55.9498 389.252 56.2264C392.729 56.5029 396.341 56.6943 399.089 59.7028C401.314 62.1388 401.973 67.6431 401.973 67.6431C401.973 67.6431 392.997 66.783 389.252 63.0606Z" stroke="#A88771" stroke-width="1.89673" stroke-linecap="round" stroke-linejoin="round"/>
<path d="M389.648 62.1041C384.88 57.9059 384.677 53.4282 384.677 53.4282C384.677 53.4282 386.075 56.3537 389.001 56.6661C391.928 56.9784 394.961 57.2266 397.537 59.6933C399.625 61.6908 400.694 66.0882 400.694 66.0882C400.694 66.0882 393.124 65.1654 389.648 62.1041Z" stroke="#A88771" stroke-width="1.89673" stroke-linecap="round" stroke-linejoin="round"/>
<path d="M388.883 61.5699C384.649 57.7446 384.677 53.4282 384.677 53.4282C384.677 53.4282 385.837 56.187 388.545 56.3472C391.254 56.5073 394.064 56.6003 396.344 58.8589C398.19 60.6878 398.973 64.8846 398.973 64.8846C398.973 64.8846 391.972 64.3595 388.883 61.5699Z" stroke="#A88771" stroke-width="1.89673" stroke-linecap="round" stroke-linejoin="round"/>
<path d="M389.529 60.6672C385.658 57.3946 385.198 54.2378 385.198 54.2378C385.198 54.2378 386.449 56.3868 388.671 56.806C390.894 57.2253 393.191 57.6067 395.297 59.5143C397.003 61.0589 398.109 64.2185 398.109 64.2185C398.109 64.2185 392.353 63.0535 389.529 60.6672Z" stroke="#A88771" stroke-width="1.89673" stroke-linecap="round" stroke-linejoin="round"/>
<path d="M390.354 60.0445C387.541 57.7312 387.066 55.665 387.066 55.665C387.066 55.665 388.032 57.1189 389.573 57.5024C391.114 57.8859 392.705 58.2488 394.242 59.5896C395.487 60.6753 396.403 62.7759 396.403 62.7759C396.403 62.7759 392.407 61.7314 390.354 60.0445Z" stroke="#A88771" stroke-width="1.89673" stroke-linecap="round" stroke-linejoin="round"/>
<path d="M391.682 59.6593C389.445 57.9082 388.881 56.5723 388.881 56.5723C388.881 56.5723 389.722 57.5829 390.848 57.9934C391.974 58.404 393.133 58.8071 394.364 59.8117C395.359 60.6251 396.238 62.0317 396.238 62.0317C396.238 62.0317 393.312 60.9362 391.682 59.6593Z" stroke="#A88771" stroke-width="1.89673" stroke-linecap="round" stroke-linejoin="round"/>
<path d="M366.596 51.4729C366.596 51.4729 371.013 48.4557 373.866 45.2582C376.721 42.0605 378.924 33.021 386.195 29.294C393.466 25.5669 404.372 26.0801 404.372 26.0801" stroke="#A88771" stroke-width="3.16122" stroke-linecap="round" stroke-linejoin="round"/>
<path d="M404.476 26.9725C404.435 24.8478 406.093 23.0662 408.217 23.0209C410.284 22.9767 411.957 24.542 412.116 26.6037C412.279 28.7154 410.749 30.5808 408.639 30.7659C406.448 30.9581 404.519 29.1713 404.476 26.9725Z" stroke="#A88771" stroke-width="3.16122" stroke-linecap="round" stroke-linejoin="round"/>
<path d="M367.61 51.0596C367.61 51.0596 372.026 54.0766 374.88 57.2742C377.734 60.4719 379.938 69.5114 387.209 73.2385C394.479 76.9655 405.386 76.4524 405.386 76.4524" stroke="#A88771" stroke-width="3.16122" stroke-linecap="round" stroke-linejoin="round"/>
<path d="M404.476 75.2337C404.435 73.109 406.093 71.3275 408.217 71.2822C410.284 71.2379 411.957 72.8032 412.116 74.8649C412.279 76.9766 410.749 78.842 408.639 79.0272C406.448 79.2194 404.519 77.4325 404.476 75.2337Z" stroke="#A88771" stroke-width="3.16122" stroke-linecap="round" stroke-linejoin="round"/>
<path d="M403.815 51.6587C403.815 51.6587 412.98 45.5623 418.268 40.8216C423.392 36.2277 426.28 25.624 426.28 25.624" stroke="#A88771" stroke-width="3.16122" stroke-linecap="round" stroke-linejoin="round"/>
<path d="M429.454 28.6464C427.791 28.6108 427.478 26.933 426.03 26.1175C424.557 25.2891 422.799 25.9855 422.025 24.4842C421.308 23.0919 422.628 22.0966 422.71 20.5326C422.808 18.6762 421.259 17.3389 422.289 15.7908C423.24 14.359 424.944 15.1287 426.398 14.2102C427.582 13.4627 427.709 12.0933 429.085 11.8393C430.855 11.5125 431.427 13.4057 433.037 14.2102C434.472 14.9276 435.939 14.4558 436.83 15.7908C437.864 17.3406 436.262 18.6698 436.303 20.5326C436.337 22.0891 437.58 23.1198 436.83 24.4842C436.054 25.8978 434.447 25.3336 433.037 26.1175C431.54 26.9497 431.166 28.6831 429.454 28.6464Z" stroke="#B9C6B4" stroke-width="2.63435" stroke-linecap="round" stroke-linejoin="round"/>
<path d="M429.633 26.2378C428.436 26.2124 428.211 25.0159 427.166 24.4343C426.107 23.8436 424.841 24.3403 424.283 23.2696C423.767 22.2767 424.718 21.567 424.777 20.4517C424.847 19.1278 423.732 18.1741 424.473 17.0702C425.159 16.0492 426.386 16.5981 427.433 15.9431C428.284 15.41 428.376 14.4335 429.368 14.2523C430.642 14.0193 431.054 15.3694 432.213 15.9431C433.247 16.4546 434.302 16.1182 434.944 17.0702C435.689 18.1754 434.535 19.1234 434.565 20.4517C434.589 21.5616 435.484 22.2966 434.944 23.2696C434.385 24.2776 433.228 23.8754 432.213 24.4343C431.135 25.0279 430.866 26.2639 429.633 26.2378Z" stroke="#F74700" stroke-width="2.8451" stroke-linecap="round" stroke-linejoin="round"/>
<path d="M429.535 24.5519C428.658 24.5334 428.492 23.6622 427.727 23.2388C426.95 22.8088 426.021 23.1703 425.613 22.3909C425.234 21.6679 425.93 21.1512 425.975 20.3392C426.026 19.3753 425.209 18.681 425.752 17.8773C426.255 17.1338 427.154 17.5334 427.922 17.0566C428.547 16.6685 428.614 15.9576 429.34 15.8256C430.275 15.656 430.577 16.6389 431.428 17.0566C432.185 17.4291 432.96 17.1841 433.43 17.8773C433.977 18.6819 433.131 19.3721 433.152 20.3392C433.17 21.1473 433.826 21.6824 433.43 22.3909C433.02 23.1248 432.172 22.8318 431.428 23.2388C430.636 23.6709 430.439 24.5709 429.535 24.5519Z" stroke="#F74700" stroke-width="2.8451" stroke-linecap="round" stroke-linejoin="round"/>
<path d="M429.462 21.9652C428.441 21.9707 427.603 21.0615 427.679 20.0929C427.75 19.1718 428.491 18.485 429.462 18.4903C430.427 18.4955 431.154 19.1758 431.225 20.0929C431.3 21.0584 430.478 21.9596 429.462 21.9652Z" stroke="#B9C6B4" stroke-width="2.73973" stroke-linecap="round" stroke-linejoin="round"/>
<path d="M428.948 20.1679C428.926 20.4558 429.166 20.7074 429.455 20.7058C429.743 20.7043 429.979 20.4543 429.957 20.1679C429.937 19.9029 429.721 19.709 429.455 19.7075C429.188 19.7061 428.969 19.9013 428.948 20.1679Z" stroke="#F74700" stroke-width="1.05374" stroke-linecap="round" stroke-linejoin="round"/>
<path d="M405.301 51.8022C405.301 51.8022 414.764 57.4248 420.287 61.8906C425.637 66.2181 429.061 76.6613 429.061 76.6613" stroke="#A88771" stroke-width="3.16122" stroke-linecap="round" stroke-linejoin="round"/>
<path d="M430.297 88.8154C428.634 88.7798 428.321 87.1019 426.872 86.2864C425.4 85.4581 423.642 86.1545 422.868 84.6531C422.151 83.2608 423.471 82.2655 423.553 80.7016C423.651 78.8451 422.102 77.5078 423.132 75.9597C424.083 74.5279 425.787 75.2977 427.241 74.3791C428.425 73.6316 428.552 72.2623 429.928 72.0082C431.698 71.6815 432.27 73.5746 433.88 74.3791C435.315 75.0965 436.782 74.6248 437.673 75.9597C438.707 77.5096 437.105 78.8388 437.146 80.7016C437.18 82.2581 438.423 83.2887 437.673 84.6531C436.897 86.0667 435.29 85.5025 433.88 86.2864C432.383 87.1186 432.009 88.8521 430.297 88.8154Z" stroke="#B9C6B4" stroke-width="2.63435" stroke-linecap="round" stroke-linejoin="round"/>
<path d="M430.476 86.4062C429.279 86.3808 429.054 85.1843 428.009 84.6028C426.95 84.012 425.684 84.5088 425.126 83.4381C424.61 82.4451 425.561 81.7354 425.62 80.6202C425.69 79.2962 424.575 78.3426 425.316 77.2387C426.002 76.2176 427.229 76.7665 428.276 76.1115C429.128 75.5784 429.219 74.6019 430.211 74.4208C431.485 74.1878 431.897 75.5379 433.056 76.1115C434.09 76.6231 435.145 76.2866 435.787 77.2387C436.532 78.3439 435.378 79.2918 435.408 80.6202C435.432 81.7301 436.327 82.465 435.787 83.4381C435.228 84.4461 434.071 84.0439 433.056 84.6028C431.978 85.1963 431.709 86.4324 430.476 86.4062Z" stroke="#F74700" stroke-width="2.8451" stroke-linecap="round" stroke-linejoin="round"/>
<path d="M430.378 84.7203C429.501 84.7019 429.335 83.8307 428.57 83.4073C427.793 82.9772 426.864 83.3388 426.456 82.5593C426.077 81.8363 426.773 81.3197 426.818 80.5077C426.869 79.5437 426.052 78.8494 426.595 78.0457C427.098 77.3023 427.997 77.7019 428.765 77.2251C429.39 76.837 429.457 76.126 430.183 75.9941C431.118 75.8244 431.42 76.8074 432.271 77.2251C433.028 77.5976 433.803 77.3526 434.273 78.0457C434.82 78.8504 433.974 79.5406 433.995 80.5077C434.013 81.3158 434.669 81.8509 434.273 82.5593C433.863 83.2932 433.015 83.0003 432.271 83.4073C431.479 83.8394 431.282 84.7394 430.378 84.7203Z" stroke="#F74700" stroke-width="2.8451" stroke-linecap="round" stroke-linejoin="round"/>
<path d="M430.305 82.1341C429.285 82.1396 428.446 81.2304 428.522 80.2618C428.593 79.3408 429.334 78.6539 430.305 78.6592C431.27 78.6645 431.997 79.3448 432.068 80.2618C432.143 81.2274 431.321 82.1285 430.305 82.1341Z" stroke="#B9C6B4" stroke-width="2.73973" stroke-linecap="round" stroke-linejoin="round"/>
<path d="M429.791 80.3364C429.769 80.6242 430.009 80.8759 430.298 80.8743C430.586 80.8727 430.822 80.6228 430.8 80.3364C430.78 80.0714 430.564 79.8775 430.298 79.876C430.031 79.8745 429.812 80.0698 429.791 80.3364Z" stroke="#F74700" stroke-width="1.05374" stroke-linecap="round" stroke-linejoin="round"/>
<path d="M237.935 18.1772C237.935 18.1772 228.451 35.6693 220.169 46.7346C211.584 58.2031 206.639 63.9095 195.153 63.9096C185.09 63.9096 173.573 60.0544 170.864 51.4755C170.082 48.9992 169.505 44.0547 173.34 41.7284C177.479 39.2173 182.442 39.4781 185.353 43.3471C188.211 47.1451 187.296 51.1803 185.353 55.5178C182.099 62.7817 174.655 64.2241 166.702 63.9096C157.006 63.5261 146.997 54.9001 146.997 54.9001" stroke="#A88771" stroke-width="3.16122" stroke-linecap="round" stroke-linejoin="round"/>
<path d="M141.779 50.8924C141.738 48.7677 143.396 46.9862 145.521 46.9409C147.588 46.8966 149.259 48.4619 149.419 50.5236C149.583 52.6353 148.052 54.5007 145.942 54.6859C143.751 54.8781 141.822 53.0912 141.779 50.8924Z" stroke="#A88771" stroke-width="3.16122" stroke-linecap="round" stroke-linejoin="round"/>
<path d="M207.482 36.3193C207.482 36.3193 219.263 37.1922 225.504 33.8007C231.55 30.5143 236.809 20.8643 236.809 20.8643" stroke="#A88771" stroke-width="3.16122" stroke-linecap="round" stroke-linejoin="round"/>
<path d="M201.936 62.9956C201.936 62.9956 197.333 67.3288 195.87 70.9512C194.451 74.4638 195.206 81.887 195.206 81.887" stroke="#A88771" stroke-width="3.16122" stroke-linecap="round" stroke-linejoin="round"/>
<path d="M199.424 64.501C199.424 64.501 188.893 66.382 186.344 71.8032C185.292 74.039 184.703 80.3268 184.703 80.3268" stroke="#A88771" stroke-width="3.16122" stroke-linecap="round" stroke-linejoin="round"/>
<path d="M140.042 51.645H56.1644" stroke="#A88771" stroke-width="3.16122" stroke-linecap="round" stroke-linejoin="round"/>
<path d="M47.0171 39.6552C44.508 40.985 44.8789 43.8354 43.7471 46.4398C42.7079 48.831 40.3253 49.126 40.6967 51.7068C41.0477 54.1463 43.0575 54.129 44.318 56.2471C45.7656 58.6793 44.9237 61.4573 47.3661 62.8876C49.9344 64.3916 51.0332 61.8711 54.0075 61.7608C56.5797 61.6654 58.88 63.7422 61.0713 62.3922C63.3289 61.0014 61.8079 58.2329 63.0801 55.9066C64.2428 53.7805 66.9001 53.5151 66.9967 51.0938C67.1022 48.4485 64.131 48.066 62.7623 45.7999C61.2738 43.3353 62.0839 40.6914 59.6118 39.5377C57.1396 38.3839 55.8491 40.741 53.121 40.7436C50.3091 40.7462 49.5017 38.3384 47.0171 39.6552Z" stroke="#B53A25" stroke-width="3.58272" stroke-linecap="round" stroke-linejoin="round"/>
<path d="M48.512 42.2997C46.5515 43.3387 46.8413 45.5659 45.957 47.6009C45.145 49.4694 43.2834 49.6999 43.5736 51.7163C43.8478 53.6225 45.4182 53.609 46.4031 55.2639C47.5342 57.1643 46.8764 59.3349 48.7847 60.4525C50.7915 61.6278 51.6501 59.6583 53.9741 59.5721C55.9838 59.4975 57.7812 61.1203 59.4935 60.0654C61.2573 58.9788 60.069 56.8156 61.063 54.9978C61.9715 53.3366 64.0479 53.1293 64.1233 51.2374C64.2058 49.1705 61.8841 48.8716 60.8147 47.1009C59.6517 45.1752 60.2846 43.1093 58.353 42.2079C56.4214 41.3065 55.413 43.1481 53.2814 43.1501C51.0842 43.1522 50.4534 41.2709 48.512 42.2997Z" stroke="#B53A25" stroke-width="3.58272" stroke-linecap="round" stroke-linejoin="round"/>
<path d="M49.3773 43.8589C47.7539 44.7193 47.9938 46.5635 47.2616 48.2485C46.5892 49.7957 45.0477 49.9866 45.2879 51.6564C45.515 53.2348 46.8154 53.2236 47.631 54.5939C48.5676 56.1676 48.0228 57.965 49.6031 58.8905C51.2647 59.8636 51.9757 58.2327 53.9001 58.1614C55.5643 58.0996 57.0526 59.4434 58.4704 58.5699C59.931 57.67 58.947 55.8788 59.7701 54.3737C60.5224 52.998 62.2417 52.8264 62.3041 51.2598C62.3724 49.5482 60.45 49.3008 59.5644 47.8345C58.6014 46.24 59.1255 44.5293 57.5261 43.7829C55.9266 43.0364 55.0916 44.5614 53.3265 44.5631C51.5072 44.5649 50.9848 43.007 49.3773 43.8589Z" stroke="#B9C6B4" stroke-width="3.05585" stroke-linecap="round" stroke-linejoin="round"/>
<path d="M50.4727 45.6535C49.2343 46.3097 49.4173 47.7167 48.8587 49.0022C48.3457 50.1826 47.1697 50.3281 47.353 51.6019C47.5262 52.8061 48.5183 52.7975 49.1405 53.8429C49.855 55.0435 49.4394 56.4147 50.6449 57.1207C51.9127 57.8631 52.455 56.6189 53.9231 56.5644C55.1926 56.5174 56.328 57.5425 57.4097 56.8761C58.524 56.1896 57.7732 54.8231 58.4012 53.6749C58.9751 52.6255 60.2867 52.4945 60.3344 51.2994C60.3865 49.9937 58.9199 49.8049 58.2444 48.6863C57.5096 47.4699 57.9095 46.1648 56.6893 45.5954C55.469 45.026 54.832 46.1893 53.4855 46.1907C52.0976 46.1919 51.6991 45.0035 50.4727 45.6535Z" stroke="#B9C6B4" stroke-width="3.05585" stroke-linecap="round" stroke-linejoin="round"/>
<path d="M50.4527 49.2909C49.2618 51.1876 50.0092 53.7844 51.9982 54.8138C53.9772 55.8379 56.5037 54.9728 57.3824 52.9251C58.1958 51.0295 57.4172 48.9223 55.5956 47.9543C53.7631 46.9807 51.5562 47.5335 50.4527 49.2909Z" stroke="#B53A25" stroke-width="2.21286" stroke-linecap="round" stroke-linejoin="round"/>
<path d="M51.14 49.6669C50.208 51.1511 50.7929 53.1829 52.3492 53.9884C53.8978 54.7898 55.8747 54.113 56.5623 52.5107C57.1988 51.0273 56.5895 49.3785 55.1641 48.6212C53.7303 47.8592 52.0034 48.2918 51.14 49.6669Z" stroke="#B53A25" stroke-width="2.21286" stroke-linecap="round" stroke-linejoin="round"/>
<path d="M53.2291 52.3506C52.645 52.0483 52.4416 51.2759 52.7706 50.752C53.0856 50.2503 53.7099 50.0783 54.2658 50.3737C54.8195 50.6679 55.0264 51.2709 54.7937 51.813C54.5504 52.38 53.8115 52.6519 53.2291 52.3506Z" stroke="#B9C6B4" stroke-width="2.21286" stroke-linecap="round" stroke-linejoin="round"/>
<path d="M110.417 62.8498C115.552 57.7451 115.157 52.1045 115.157 52.1045C115.157 52.1045 113.893 55.7389 110.417 56.0156C106.94 56.2921 103.327 56.4834 100.58 59.492C98.3551 61.928 97.696 67.4323 97.696 67.4323C97.696 67.4323 106.672 66.5721 110.417 62.8498Z" stroke="#A88771" stroke-width="1.89673" stroke-linecap="round" stroke-linejoin="round"/>
<path d="M110.021 61.8936C114.789 57.6954 114.993 53.2178 114.993 53.2178C114.993 53.2178 113.594 56.1433 110.667 56.4556C107.74 56.7679 104.708 57.0162 102.131 59.4829C100.044 61.4804 98.974 65.8777 98.974 65.8777C98.974 65.8777 106.544 64.955 110.021 61.8936Z" stroke="#A88771" stroke-width="1.89673" stroke-linecap="round" stroke-linejoin="round"/>
<path d="M110.785 61.3595C115.02 57.5341 114.993 53.2178 114.993 53.2178C114.993 53.2178 113.833 55.9766 111.124 56.1367C108.415 56.2968 105.604 56.3899 103.325 58.6484C101.48 60.4773 100.696 64.6741 100.696 64.6741C100.696 64.6741 107.698 64.1491 110.785 61.3595Z" stroke="#A88771" stroke-width="1.89673" stroke-linecap="round" stroke-linejoin="round"/>
<path d="M110.14 60.4563C114.012 57.1837 114.471 54.0269 114.471 54.0269C114.471 54.0269 113.219 56.1759 110.997 56.595C108.775 57.0143 106.478 57.3958 104.372 59.3034C102.666 60.8479 101.561 64.0076 101.561 64.0076C101.561 64.0076 107.316 62.8426 110.14 60.4563Z" stroke="#A88771" stroke-width="1.89673" stroke-linecap="round" stroke-linejoin="round"/>
<path d="M109.314 59.8336C112.128 57.5203 112.602 55.4541 112.602 55.4541C112.602 55.4541 111.637 56.9079 110.096 57.2915C108.555 57.675 106.964 58.0379 105.426 59.3787C104.182 60.4644 103.266 62.565 103.266 62.565C103.266 62.565 107.262 61.5205 109.314 59.8336Z" stroke="#A88771" stroke-width="1.89673" stroke-linecap="round" stroke-linejoin="round"/>
<path d="M107.987 59.4489C110.224 57.6978 110.788 56.3618 110.788 56.3618C110.788 56.3618 109.947 57.3725 108.821 57.783C107.695 58.1935 106.536 58.5967 105.306 59.6012C104.309 60.4146 103.431 61.8214 103.431 61.8214C103.431 61.8214 106.356 60.7258 107.987 59.4489Z" stroke="#A88771" stroke-width="1.89673" stroke-linecap="round" stroke-linejoin="round"/>
<path d="M110.432 40.5396C115.567 45.6443 115.172 51.2848 115.172 51.2848C115.172 51.2848 113.908 47.6504 110.432 47.3739C106.955 47.0974 103.342 46.9059 100.595 43.8975C98.3701 41.4615 97.7111 35.957 97.7111 35.957C97.7111 35.957 106.687 36.8172 110.432 40.5396Z" stroke="#A88771" stroke-width="1.89673" stroke-linecap="round" stroke-linejoin="round"/>
<path d="M110.036 41.4958C114.804 45.6939 115.008 50.1716 115.008 50.1716C115.008 50.1716 113.609 47.2462 110.682 46.9338C107.756 46.6215 104.723 46.3733 102.146 43.9065C100.059 41.909 98.989 37.5117 98.989 37.5117C98.989 37.5117 106.56 38.4345 110.036 41.4958Z" stroke="#A88771" stroke-width="1.89673" stroke-linecap="round" stroke-linejoin="round"/>
<path d="M110.8 42.0299C115.035 45.8553 115.008 50.1716 115.008 50.1716C115.008 50.1716 113.848 47.4128 111.139 47.2527C108.43 47.0926 105.619 46.9995 103.34 44.7409C101.495 42.9121 100.711 38.7153 100.711 38.7153C100.711 38.7153 107.713 39.2404 110.8 42.0299Z" stroke="#A88771" stroke-width="1.89673" stroke-linecap="round" stroke-linejoin="round"/>
<path d="M110.155 42.9332C114.027 46.2056 114.486 49.3624 114.486 49.3624C114.486 49.3624 113.234 47.2136 111.012 46.7943C108.79 46.375 106.493 45.9935 104.387 44.0861C102.681 42.5414 101.576 39.3818 101.576 39.3818C101.576 39.3818 107.331 40.5469 110.155 42.9332Z" stroke="#A88771" stroke-width="1.89673" stroke-linecap="round" stroke-linejoin="round"/>
<path d="M109.329 43.5556C112.143 45.869 112.617 47.9352 112.617 47.9352C112.617 47.9352 111.652 46.4812 110.111 46.0978C108.57 45.7142 106.979 45.3514 105.441 44.0106C104.197 42.9248 103.281 40.8242 103.281 40.8242C103.281 40.8242 107.277 41.8688 109.329 43.5556Z" stroke="#A88771" stroke-width="1.89673" stroke-linecap="round" stroke-linejoin="round"/>
<path d="M108.002 43.9409C110.239 45.692 110.803 47.0278 110.803 47.0278C110.803 47.0278 109.962 46.0171 108.836 45.6066C107.71 45.1962 106.551 44.7929 105.321 43.7885C104.324 42.9751 103.446 41.5684 103.446 41.5684C103.446 41.5684 106.371 42.6639 108.002 43.9409Z" stroke="#A88771" stroke-width="1.89673" stroke-linecap="round" stroke-linejoin="round"/>
<path d="M133.233 51.1763C133.233 51.1763 128.816 54.1934 125.962 57.391C123.108 60.5886 120.904 69.6281 113.633 73.3552C106.363 77.0823 95.4564 76.5691 95.4564 76.5691" stroke="#A88771" stroke-width="3.16122" stroke-linecap="round" stroke-linejoin="round"/>
<path d="M96.366 75.3509C96.4071 73.2263 94.7496 71.4448 92.6252 71.3993C90.5578 71.3552 88.8861 72.9204 88.7264 74.9821C88.5629 77.0938 90.0938 78.9592 92.2037 79.1443C94.3945 79.3365 96.3234 77.5497 96.366 75.3509Z" stroke="#A88771" stroke-width="3.16122" stroke-linecap="round" stroke-linejoin="round"/>
<path d="M134.246 51.5901C134.246 51.5901 129.83 48.5729 126.976 45.3753C124.122 42.1778 121.918 33.1383 114.647 29.4112C107.376 25.6841 96.4701 26.1973 96.4701 26.1973" stroke="#A88771" stroke-width="3.16122" stroke-linecap="round" stroke-linejoin="round"/>
<path d="M96.366 27.0896C96.4071 24.9651 94.7496 23.1835 92.6252 23.1381C90.5578 23.094 88.8861 24.6592 88.7264 26.7208C88.5629 28.8325 90.0938 30.698 92.2037 30.8831C94.3945 31.0753 96.3234 29.2885 96.366 27.0896Z" stroke="#A88771" stroke-width="3.16122" stroke-linecap="round" stroke-linejoin="round"/>
<path d="M95.5414 51.9189C95.5414 51.9189 86.0781 57.5416 80.5559 62.0074C75.2046 66.3349 71.7809 76.778 71.7809 76.778" stroke="#A88771" stroke-width="3.16122" stroke-linecap="round" stroke-linejoin="round"/>
<path d="M71.709 89.8691C70.0468 89.8335 69.7331 88.1556 68.2843 87.3401C66.8125 86.5118 65.0533 87.2082 64.2801 85.7068C63.5629 84.3145 64.8825 83.3193 64.965 81.7553C65.0629 79.8988 63.5139 78.5615 64.5435 77.0135C65.4957 75.5816 67.1995 76.3514 68.6531 75.4328C69.8361 74.6853 69.964 73.316 71.3401 73.0619C73.1098 72.7352 73.6819 74.6283 75.2917 75.4328C76.7273 76.1502 78.1943 75.6785 79.0851 77.0135C80.1193 78.5633 78.5175 79.8925 78.5583 81.7553C78.5923 83.3118 79.8348 84.3424 79.0851 85.7068C78.3084 87.1204 76.7013 86.5562 75.2917 87.3401C73.7948 88.1724 73.4212 89.9058 71.709 89.8691Z" stroke="#B9C6B4" stroke-width="2.63435" stroke-linecap="round" stroke-linejoin="round"/>
<path d="M71.8879 87.4599C70.6911 87.4346 70.4651 86.238 69.4219 85.6565C68.3623 85.0657 67.0956 85.5625 66.5388 84.4918C66.0224 83.4988 66.9725 82.7891 67.0319 81.6739C67.1024 80.3499 65.9872 79.3963 66.7285 78.2924C67.414 77.2713 68.6408 77.8202 69.6875 77.1652C70.5394 76.6321 70.6314 75.6556 71.6224 75.4745C72.8965 75.2415 73.3084 76.5916 74.4676 77.1652C75.5013 77.6768 76.5575 77.3404 77.1991 78.2924C77.9437 79.3976 76.7903 80.3455 76.8197 81.6739C76.8442 82.7838 77.7389 83.5188 77.1991 84.4918C76.6397 85.4998 75.4826 85.0976 74.4676 85.6565C73.3899 86.25 73.1208 87.4861 71.8879 87.4599Z" stroke="#F74700" stroke-width="2.8451" stroke-linecap="round" stroke-linejoin="round"/>
<path d="M71.7904 85.774C70.9127 85.7556 70.7471 84.8844 69.9821 84.461C69.2051 84.0309 68.2761 84.3925 67.8677 83.613C67.489 82.8901 68.1859 82.3734 68.2294 81.5614C68.2811 80.5974 67.4632 79.9031 68.0068 79.0994C68.5097 78.356 69.4093 78.7556 70.1768 78.2788C70.8016 77.8907 70.869 77.1797 71.5957 77.0478C72.5301 76.8781 72.8322 77.8611 73.6822 78.2788C74.4402 78.6513 75.215 78.4063 75.6853 79.0994C76.2314 79.9041 75.3856 80.5943 75.4071 81.5614C75.4251 82.3695 76.0811 82.9046 75.6853 83.613C75.2751 84.347 74.4265 84.054 73.6822 84.461C72.8919 84.8931 72.6945 85.7931 71.7904 85.774Z" stroke="#F74700" stroke-width="2.8451" stroke-linecap="round" stroke-linejoin="round"/>
<path d="M71.7163 83.1878C70.6965 83.1933 69.858 82.2842 69.9333 81.3156C70.005 80.3945 70.7465 79.7077 71.7163 79.7129C72.682 79.7182 73.4087 80.3985 73.4801 81.3156C73.5552 82.2811 72.7329 83.1823 71.7163 83.1878Z" stroke="#B9C6B4" stroke-width="2.73973" stroke-linecap="round" stroke-linejoin="round"/>
<path d="M71.2033 81.3901C71.1809 81.678 71.4216 81.9296 71.7103 81.928C71.9975 81.9264 72.2342 81.6765 72.2118 81.3901C72.1912 81.1251 71.9762 80.9312 71.7103 80.9297C71.4429 80.9282 71.224 81.1235 71.2033 81.3901Z" stroke="#F74700" stroke-width="1.05374" stroke-linecap="round" stroke-linejoin="round"/>
<path d="M97.0282 51.7759C97.0282 51.7759 87.8628 45.6796 82.5747 40.9389C77.4503 36.3449 74.562 25.7412 74.562 25.7412" stroke="#A88771" stroke-width="3.16122" stroke-linecap="round" stroke-linejoin="round"/>
<path d="M71.709 28.6464C70.0468 28.6108 69.7331 26.933 68.2843 26.1175C66.8125 25.2891 65.0533 25.9855 64.2801 24.4842C63.5629 23.0919 64.8825 22.0966 64.965 20.5326C65.0629 18.6762 63.5139 17.3389 64.5435 15.7908C65.4957 14.359 67.1995 15.1287 68.6531 14.2102C69.8361 13.4627 69.964 12.0933 71.3401 11.8393C73.1098 11.5125 73.6819 13.4057 75.2917 14.2102C76.7273 14.9276 78.1943 14.4558 79.0851 15.7908C80.1193 17.3406 78.5175 18.6698 78.5583 20.5326C78.5923 22.0891 79.8348 23.1198 79.0851 24.4842C78.3084 25.8978 76.7013 25.3336 75.2917 26.1175C73.7948 26.9497 73.4212 28.6831 71.709 28.6464Z" stroke="#B9C6B4" stroke-width="2.63435" stroke-linecap="round" stroke-linejoin="round"/>
<path d="M71.8879 26.2378C70.6911 26.2124 70.4651 25.0159 69.4219 24.4343C68.3623 23.8436 67.0956 24.3403 66.5388 23.2696C66.0224 22.2767 66.9725 21.567 67.0319 20.4517C67.1024 19.1278 65.9872 18.1741 66.7285 17.0702C67.414 16.0492 68.6408 16.5981 69.6875 15.9431C70.5394 15.41 70.6314 14.4335 71.6224 14.2523C72.8965 14.0193 73.3084 15.3694 74.4676 15.9431C75.5013 16.4546 76.5575 16.1182 77.1991 17.0702C77.9437 18.1754 76.7903 19.1234 76.8197 20.4517C76.8442 21.5616 77.7389 22.2966 77.1991 23.2696C76.6397 24.2776 75.4826 23.8754 74.4676 24.4343C73.3899 25.0279 73.1208 26.2639 71.8879 26.2378Z" stroke="#F74700" stroke-width="2.8451" stroke-linecap="round" stroke-linejoin="round"/>
<path d="M71.7904 24.5519C70.9127 24.5334 70.7471 23.6622 69.9821 23.2388C69.2051 22.8088 68.2761 23.1703 67.8677 22.3909C67.489 21.6679 68.1859 21.1512 68.2294 20.3392C68.2811 19.3753 67.4632 18.681 68.0068 17.8773C68.5097 17.1338 69.4093 17.5334 70.1768 17.0566C70.8016 16.6685 70.869 15.9576 71.5957 15.8256C72.5301 15.656 72.8322 16.6389 73.6822 17.0566C74.4402 17.4291 75.215 17.1841 75.6853 17.8773C76.2314 18.6819 75.3856 19.3721 75.4071 20.3392C75.4251 21.1473 76.0811 21.6824 75.6853 22.3909C75.2751 23.1248 74.4265 22.8318 73.6822 23.2388C72.8919 23.6709 72.6945 24.5709 71.7904 24.5519Z" stroke="#F74700" stroke-width="2.8451" stroke-linecap="round" stroke-linejoin="round"/>
<path d="M71.7163 21.9652C70.6965 21.9707 69.858 21.0615 69.9333 20.0929C70.005 19.1718 70.7465 18.485 71.7163 18.4903C72.682 18.4955 73.4087 19.1758 73.4801 20.0929C73.5552 21.0584 72.7329 21.9596 71.7163 21.9652Z" stroke="#B9C6B4" stroke-width="2.73973" stroke-linecap="round" stroke-linejoin="round"/>
<path d="M71.2033 20.1679C71.1809 20.4558 71.4216 20.7074 71.7103 20.7058C71.9975 20.7043 72.2342 20.4543 72.2118 20.1679C72.1912 19.9029 71.9762 19.709 71.7103 19.7075C71.4429 19.7061 71.224 19.9013 71.2033 20.1679Z" stroke="#F74700" stroke-width="1.05374" stroke-linecap="round" stroke-linejoin="round"/>
<path d="M290.475 31.2614C290.484 31.0738 290.416 30.882 290.384 30.6934L290.135 30.6765C289.945 33.6386 288.765 36.2003 287.106 38.647C287.106 36.7324 287.106 34.8999 287.12 33.0685C287.124 32.8019 287.158 32.5365 287.22 32.2772C287.606 30.6007 287.987 28.9242 288.398 27.254C288.925 25.1233 289.502 23.0064 289.997 20.8694C290.291 19.6798 290.252 18.4326 289.885 17.2635C289.642 16.5122 289.347 15.7408 288.445 15.6333C287.543 15.5259 287.075 16.1939 286.633 16.8515C286.449 17.1275 286.242 17.3868 286.045 17.6544L285.791 17.5733C285.808 16.8725 285.791 16.1697 285.85 15.4732C285.979 14.0264 286.233 12.587 286.289 11.1381C286.386 8.63546 286.338 6.13809 284.354 4.20553C284.354 4.20553 282.917 3.13072 282.12 4.16338C281.859 4.50374 281.459 4.80511 281.325 5.1971C281.066 5.94631 280.948 6.74505 280.774 7.52271C280.734 7.70185 280.703 7.88309 280.669 8.06222H280.491C280.356 7.28246 280.21 6.50374 280.092 5.71976C279.914 4.44965 279.428 3.24209 278.679 2.20132C278.169 1.50374 277.499 0.837779 276.757 0.409961C275.23 -0.466752 273.568 0.486884 273.372 2.23504C273.353 2.40258 273.346 2.57118 273.311 3.02008C272.995 2.70395 272.837 2.48372 272.624 2.34252C272.007 1.93367 271.399 1.49953 270.734 1.18341C269.259 0.482669 267.719 1.4342 267.748 3.04958C267.772 3.63777 267.942 4.21071 268.243 4.7166C268.678 5.45422 269.268 6.09278 269.79 6.77455C269.919 6.94315 270.042 7.11491 270.207 7.33514C269.631 7.39415 269.153 7.38572 268.698 7.50058C267.433 7.82408 266.972 9.11175 267.779 10.1349C268.11 10.5528 268.525 10.8967 268.997 11.1444C269.945 11.627 270.935 12.0274 271.923 12.4258C273.188 12.9337 274.479 13.3741 275.734 13.9084C276.224 14.1191 276.768 14.3583 276.943 15.0137C276.305 15.293 275.767 14.9474 275.202 14.8504C274.302 14.6966 273.398 14.5069 272.491 14.4784C271.697 14.4532 270.953 14.7566 270.62 15.5817C270.346 16.2582 270.687 17.0907 271.415 17.6892C271.506 17.7665 271.603 17.8346 271.707 17.8926C272.964 18.5501 274.201 19.2498 275.487 19.8451C276.751 20.4289 278.071 20.8894 279.353 21.4352C279.915 21.6744 280.457 21.9769 280.723 22.6565C280.395 22.6823 280.065 22.6466 279.751 22.5511C279.071 22.3509 278.411 22.0443 277.718 21.9284C276.584 21.7366 275.848 22.6607 276.315 23.6966C276.554 24.2014 276.917 24.6383 277.369 24.9674C278.233 25.5913 279.14 26.1523 280.084 26.646C282.473 27.8905 284.338 29.6428 285.581 32.0432C285.675 32.1999 285.781 32.35 285.897 32.4921L285.919 32.4848C285.905 31.6239 285.736 30.7682 285.568 29.9379C285.508 29.6365 285.447 29.3351 285.393 29.0338C285.39 29.0087 285.384 28.9841 285.373 28.9611C285.125 28.7165 284.891 28.4583 284.673 28.1876C284.323 27.7661 283.994 27.3762 283.556 27.0738C282.518 26.3574 281.435 25.7093 280.313 25.1339L280.26 25.1096C280.194 25.0891 280.133 25.0545 280.081 25.0081C280.031 24.9617 279.989 24.9047 279.962 24.8409C279.943 24.7664 279.94 24.6887 279.953 24.6128C279.965 24.5368 279.994 24.4645 280.037 24.4005C280.06 24.357 280.099 24.3243 280.146 24.3091C280.193 24.294 280.244 24.2976 280.289 24.3193L280.809 24.568C282.111 25.1897 283.444 25.8325 284.537 26.8968C284.699 27.0317 284.866 27.1771 285.04 27.333C284.683 25.9568 284.31 24.6755 283.902 23.4342C283.718 22.9046 283.417 22.4231 283.022 22.0253C282.037 20.9842 281.008 20.2603 279.878 19.8125C278.283 19.1802 276.69 18.5385 275.149 17.9157C275.086 17.8905 275.023 17.8683 274.96 17.8462C274.718 17.7619 274.447 17.6681 274.252 17.4247C274.233 17.414 274.217 17.4 274.203 17.3836C274.177 17.3514 274.161 17.3112 274.159 17.2693C274.158 17.2274 274.17 17.1861 274.194 17.1518C274.223 17.1091 274.269 17.0792 274.319 17.0675L274.192 17.0032L274.359 17.0559C274.602 16.9853 274.818 17.0696 274.992 17.1391L275.034 17.156C275.35 17.2793 275.666 17.3984 275.982 17.5174C276.468 17.6997 276.97 17.8894 277.457 18.0928C277.807 18.2382 278.17 18.3794 278.519 18.5143C280.026 19.1033 281.575 19.7092 282.88 20.9179L282.458 20.0685C281.533 18.1939 280.576 16.255 279.469 14.4384C279.047 13.7491 278.486 13.1556 277.822 12.6955C276.376 11.6607 274.646 10.9242 272.379 10.3773L272.234 10.3425C271.488 10.1634 270.717 9.97898 269.862 9.46791C269.825 9.44605 269.798 9.41268 269.782 9.37306C269.766 9.33343 269.765 9.28979 269.777 9.249C269.788 9.20822 269.813 9.1726 269.848 9.14776C269.883 9.12291 269.925 9.11024 269.967 9.11175C270.428 9.13243 270.882 9.22597 271.313 9.38888C271.523 9.46381 271.738 9.52333 271.956 9.56697C272.845 9.7292 273.723 9.95422 274.581 10.2403C275.751 10.6175 276.816 11.2192 277.847 11.8093L277.829 11.7851L277.795 11.7366C276.165 9.4498 274.331 7.31596 272.315 5.36149C272.201 5.25611 272.078 5.15074 271.947 5.04537C271.592 4.75243 271.227 4.45106 271.035 3.97793C271.019 3.96194 271.005 3.94344 270.995 3.92313C270.981 3.89381 270.975 3.86146 270.976 3.82905C270.978 3.79665 270.988 3.76523 271.005 3.73767L271.018 3.71765C271.037 3.68692 271.065 3.66229 271.098 3.64663C271.131 3.63097 271.168 3.6249 271.203 3.62914C271.239 3.63328 271.273 3.64753 271.301 3.67023C271.483 3.72913 271.643 3.83667 271.767 3.98109L271.832 4.04431C273.332 5.43841 275.079 7.12545 276.668 9.05906C277.424 9.97898 278.129 10.9558 278.903 12.0843C278.88 11.9526 278.857 11.823 278.833 11.6945C278.68 10.8241 278.533 10.0022 278.376 9.19605C278.219 8.48381 278.015 7.78317 277.762 7.09911C277.614 6.66918 277.462 6.2245 277.334 5.77772C277.109 5.0311 276.834 4.30058 276.51 3.5912C276.391 3.31302 276.268 3.02745 276.143 2.72292C276.128 2.68433 276.124 2.64165 276.135 2.60134C276.146 2.56104 276.17 2.52529 276.202 2.49953C276.239 2.47116 276.287 2.45764 276.333 2.46159C276.315 2.43104 276.299 2.40048 276.281 2.37097C276.311 2.40153 276.338 2.4342 276.367 2.46581C276.39 2.47145 276.413 2.48145 276.433 2.49531C276.928 2.85569 277.131 3.10648 277.375 3.66391C277.523 4.00322 277.663 4.34392 277.797 4.68604C277.818 4.74083 277.838 4.79563 277.857 4.85042C278.207 5.78823 278.49 6.74952 278.705 7.72714C278.73 7.84726 278.753 7.96844 278.777 8.08962C278.891 8.54062 279.001 8.99479 279.098 9.45C279.115 9.49742 279.129 9.54484 279.146 9.59226C279.233 9.8425 279.292 10.1015 279.321 10.3646C279.377 10.7387 279.427 11.0928 279.656 11.3857C279.685 11.4224 279.699 11.4681 279.695 11.5143C279.683 11.7225 279.685 11.9313 279.704 12.1391C279.883 12.8483 280.087 13.5501 280.336 14.2371C280.484 14.5533 280.645 14.8609 280.809 15.1771C280.915 15.3878 281.026 15.5986 281.131 15.8093C281.502 16.5554 281.915 17.2983 282.313 18.0222C282.445 18.2596 282.576 18.4967 282.706 18.7334C282.739 18.7985 282.763 18.8676 282.777 18.9389C282.784 18.9745 282.793 19.0097 282.805 19.0443C282.823 18.8907 282.819 18.7352 282.792 18.5828C282.77 18.437 282.762 18.2896 282.767 18.1423C282.847 16.8662 283.096 15.6049 283.337 14.3847L283.429 13.92C283.925 11.3773 283.944 9.11807 283.485 7.01059C283.485 6.98952 283.474 6.96844 283.468 6.94631C283.433 6.82829 283.369 6.60912 283.564 6.42577C283.589 6.40153 283.62 6.38465 283.653 6.37703C283.687 6.3694 283.723 6.37132 283.756 6.38256C284.117 6.5048 284.177 6.82619 284.222 7.0401C284.562 8.77982 284.841 10.489 284.516 12.2635C284.446 12.6597 284.373 13.0566 284.297 13.4542C284.05 14.7893 283.793 16.1697 283.586 17.5332C283.354 19.0622 283.498 20.3941 284.026 21.6028C284.413 22.4582 284.713 23.3503 284.923 24.2656C284.945 24.3642 284.984 24.4583 285.039 24.5438C285.081 24.6112 285.111 24.6196 285.132 24.6186C285.153 24.6175 285.143 24.5775 285.148 24.5596C285.332 23.8224 285.611 23.1122 285.978 22.4468C286.558 21.3489 287.054 20.2083 287.46 19.0348C287.473 18.9979 287.485 18.96 287.496 18.9221C287.564 18.7008 287.647 18.4268 287.936 18.2624C287.979 18.2381 288.03 18.2314 288.078 18.2439C288.126 18.2562 288.168 18.2867 288.194 18.3288C288.405 18.6692 288.299 18.9526 288.211 19.1802C288.184 19.246 288.162 19.3132 288.144 19.3815C287.867 20.4327 287.464 21.4462 286.941 22.3994C285.858 24.2456 285.532 26.0875 285.946 28.0432C285.977 28.1876 286.009 28.3383 286.044 28.4964C286.36 29.9231 286.773 31.8367 286.41 33.5259C286.53 35.1899 286.531 36.8604 286.415 38.5248C286.344 39.5079 286.172 40.4848 286.046 41.4647C285.941 42.2234 285.188 43.608 285.188 43.608C284.691 44.5153 284.104 45.372 283.557 46.2508C283.421 46.469 283.294 46.6923 283.168 46.9063C283.795 47.371 283.825 47.3931 284.19 46.8894C285.308 45.3477 286.106 43.5973 286.536 41.7419C286.798 40.585 287.238 39.4758 287.841 38.4542C288.219 37.8156 288.58 37.1673 288.921 36.509C289.779 34.8599 290.39 33.137 290.475 31.2614Z" fill="#F74700"/>
<path d="M209.831 68.7985C209.823 68.9861 209.891 69.1768 209.924 69.3665L210.172 69.3823C210.361 66.4202 211.542 63.8586 213.2 61.4118C213.2 63.3275 213.2 65.1589 213.187 66.9903C213.182 67.2572 213.149 67.5229 213.087 67.7827C212.702 69.4582 212.319 71.1347 211.909 72.8048C211.383 74.9355 210.806 77.0535 210.31 79.1905C210.016 80.3797 210.055 81.6266 210.421 82.7954C210.665 83.5477 210.961 84.318 211.862 84.4265C212.763 84.5351 213.232 83.866 213.673 83.2074C213.858 82.9323 214.064 82.6721 214.261 82.4055L214.515 82.4866C214.498 83.1863 214.515 83.8902 214.457 84.5857C214.328 86.0324 214.075 87.4729 214.018 88.9207C213.921 91.4244 213.968 93.9218 215.953 95.8533C215.953 95.8533 217.39 96.9281 218.187 95.8955C218.448 95.5551 218.847 95.2548 218.982 94.8628C219.24 94.1125 219.358 93.3148 219.532 92.5361C219.572 92.357 219.604 92.1768 219.638 91.9966H219.816C219.95 92.7774 220.098 93.5562 220.216 94.3391C220.394 95.6095 220.879 96.8174 221.628 97.8586C222.139 98.5562 222.807 99.2211 223.55 99.6499C225.077 100.527 226.739 99.573 226.936 97.8249C226.955 97.6584 226.962 97.4898 226.996 97.0409C227.312 97.357 227.47 97.5762 227.683 97.7174C228.299 98.1262 228.908 98.5604 229.572 98.8765C231.047 99.5772 232.588 98.6257 232.558 97.0114C232.534 96.423 232.365 95.8498 232.064 95.3433C231.63 94.6057 231.04 93.9671 230.517 93.2853C230.388 93.1178 230.264 92.946 230.096 92.7248C230.672 92.6657 231.15 92.6742 231.605 92.5593C232.869 92.2358 233.331 90.9481 232.524 89.925C232.194 89.5063 231.779 89.1623 231.307 88.9155C230.358 88.4329 229.368 88.0314 228.379 87.6341C227.115 87.1252 225.823 86.6858 224.569 86.1505C224.078 85.9397 223.534 85.7005 223.359 85.0461C223.999 84.7669 224.535 85.1125 225.1 85.2084C226 85.3623 226.904 85.5519 227.811 85.5814C228.607 85.6057 229.35 85.3033 229.683 84.4782C229.957 83.8017 229.615 82.9682 228.887 82.3707C228.797 82.293 228.7 82.2245 228.595 82.1663C227.339 81.5098 226.102 80.809 224.816 80.2147C223.551 79.6299 222.232 79.1694 220.95 78.6236C220.388 78.3844 219.845 78.083 219.581 77.4023C219.908 77.3767 220.237 77.4124 220.551 77.5077C221.232 77.7079 221.893 78.0135 222.585 78.1304C223.719 78.3212 224.455 77.3928 223.987 76.3623C223.748 75.8572 223.386 75.4202 222.934 75.0915C222.067 74.4668 221.157 73.9058 220.21 73.4128C217.821 72.1684 215.956 70.416 214.713 68.0156C214.619 67.8586 214.513 67.7085 214.397 67.5667L214.376 67.5751C214.389 68.435 214.558 69.2917 214.726 70.121C214.787 70.4223 214.847 70.7237 214.901 71.0261C214.903 71.0511 214.91 71.0754 214.922 71.0978C215.169 71.3428 215.403 71.6013 215.621 71.8723C215.97 72.2885 216.3 72.6826 216.738 72.985C217.779 73.7009 218.865 74.3476 219.992 74.9207L220.043 74.945C220.11 74.966 220.171 75.0008 220.221 75.0474C220.273 75.094 220.314 75.151 220.341 75.2147C220.36 75.2891 220.365 75.3667 220.351 75.4425C220.338 75.5182 220.31 75.5904 220.267 75.6542C220.243 75.6976 220.204 75.7304 220.157 75.7457C220.111 75.761 220.059 75.7576 220.015 75.7363C219.842 75.652 219.668 75.5698 219.494 75.4866C218.193 74.866 216.86 74.2274 215.766 73.1589C215.605 73.024 215.438 72.8786 215.263 72.7216C215.621 74.0978 215.994 75.3802 216.401 76.6204C216.586 77.1504 216.886 77.6321 217.281 78.0303C218.267 79.0714 219.295 79.7954 220.426 80.2432C222.02 80.8754 223.614 81.5172 225.155 82.1399C225.217 82.1642 225.28 82.1863 225.345 82.2084C225.586 82.2927 225.857 82.3876 226.052 82.6299C226.07 82.6407 226.086 82.6546 226.1 82.671C226.126 82.7033 226.142 82.7433 226.144 82.7851C226.146 82.827 226.134 82.8683 226.111 82.9028C226.08 82.9454 226.036 82.9758 225.985 82.9882H225.979L226.106 83.0525L225.939 82.9998C225.697 83.0704 225.481 82.9871 225.307 82.9165L225.264 82.8997C224.948 82.7764 224.632 82.6573 224.316 82.5393C223.83 82.3559 223.328 82.1673 222.841 81.964C222.491 81.8175 222.13 81.6763 221.78 81.5425C220.272 80.9545 218.724 80.3475 217.418 79.1389C217.56 79.4223 217.699 79.7058 217.84 79.9892C218.765 81.8638 219.722 83.8017 220.829 85.6183C221.251 86.3077 221.812 86.9017 222.476 87.3623C223.922 88.397 225.652 89.1336 227.92 89.6805L228.064 89.7153C228.81 89.8934 229.583 90.0788 230.436 90.5888C230.473 90.6106 230.501 90.644 230.516 90.6837C230.532 90.7233 230.533 90.7669 230.522 90.8077C230.509 90.8486 230.484 90.8842 230.45 90.9089C230.415 90.9338 230.373 90.9465 230.331 90.945C229.87 90.9248 229.415 90.8315 228.984 90.6689C228.774 90.5931 228.56 90.5333 228.341 90.4898C227.452 90.3279 226.574 90.1028 225.717 89.8164C224.547 89.4402 223.482 88.8386 222.45 88.2474C222.455 88.2559 222.462 88.2641 222.468 88.2716L222.504 88.3212C224.133 90.6075 225.967 92.741 227.983 94.6952C228.098 94.8006 228.221 94.906 228.352 95.0114C228.706 95.3043 229.072 95.6067 229.263 96.0799C229.279 96.0955 229.293 96.1136 229.303 96.1336C229.317 96.1631 229.323 96.1957 229.321 96.2282C229.32 96.2608 229.31 96.2924 229.293 96.3201L229.28 96.3401C229.261 96.3707 229.233 96.3952 229.201 96.4108C229.169 96.4265 229.132 96.4327 229.096 96.4286C229.06 96.4234 229.025 96.4088 228.997 96.3865C228.816 96.3272 228.654 96.2176 228.532 96.0704L228.466 96.0082C226.976 94.6257 225.224 92.9397 223.636 91.004C222.88 90.083 222.175 89.1073 221.4 87.9787C221.424 88.1104 221.447 88.24 221.47 88.3686C221.625 89.2379 221.77 90.0546 221.927 90.867C222.083 91.5789 222.289 92.2792 222.542 92.9629C222.689 93.3928 222.842 93.8375 222.969 94.2853C223.195 95.0318 223.47 95.7624 223.793 96.4719C223.914 96.749 224.036 97.0345 224.16 97.3391C224.176 97.3776 224.179 97.4204 224.169 97.4607C224.158 97.501 224.134 97.5369 224.101 97.5625C224.064 97.5916 224.018 97.6056 223.97 97.6015C223.988 97.631 224.004 97.6615 224.022 97.6921C223.993 97.6605 223.966 97.6278 223.937 97.5962C223.913 97.591 223.89 97.5809 223.87 97.5667C223.375 97.2074 223.174 96.9555 222.929 96.3981C222.781 96.0595 222.641 95.7187 222.508 95.376C222.487 95.3222 222.468 95.2706 222.448 95.2126C222.099 94.2745 221.818 93.3128 221.605 92.3349C221.579 92.2147 221.555 92.0936 221.532 91.9734C221.417 91.5214 221.309 91.0683 221.216 90.6131C221.2 90.5656 221.185 90.5172 221.168 90.4697C221.081 90.2199 221.022 89.9612 220.993 89.6984C220.937 89.3233 220.887 88.9692 220.659 88.6773C220.63 88.6404 220.615 88.5944 220.619 88.5477C220.631 88.3395 220.629 88.1307 220.611 87.9229C220.431 87.2137 220.227 86.5129 219.979 85.8259C219.831 85.5098 219.67 85.201 219.506 84.8849C219.4 84.6742 219.289 84.4634 219.183 84.2527C218.812 83.5066 218.4 82.7627 218.001 82.0398C217.869 81.8038 217.739 81.567 217.608 81.3296C217.575 81.2628 217.551 81.192 217.537 81.1189C217.53 81.0831 217.521 81.0479 217.509 81.0135C217.491 81.1675 217.495 81.3234 217.523 81.4761C217.545 81.6215 217.553 81.7686 217.548 81.9155C217.467 83.1916 217.218 84.4539 216.977 85.6731L216.885 86.1389C216.389 88.6805 216.371 90.9408 216.829 93.0483C216.833 93.0701 216.84 93.0915 216.847 93.1125C216.881 93.2295 216.945 93.4497 216.751 93.6331C216.726 93.657 216.694 93.6736 216.661 93.681C216.627 93.6885 216.591 93.6865 216.558 93.6752C216.197 93.554 216.137 93.2316 216.093 93.0187C215.752 91.278 215.473 89.5688 215.798 87.7954C215.868 87.3984 215.941 87.0016 216.017 86.6046C216.264 85.2695 216.521 83.8881 216.728 82.5245C216.96 80.9956 216.817 79.6647 216.289 78.456C215.9 77.605 215.596 76.7173 215.385 75.8059C215.362 75.7076 215.323 75.6139 215.27 75.5288C215.228 75.4613 215.197 75.4529 215.176 75.4529C215.176 75.4687 215.164 75.494 215.16 75.5119C214.976 76.2495 214.698 76.96 214.33 77.6257C213.748 78.719 213.25 79.855 212.841 81.024C212.828 81.0609 212.817 81.0988 212.805 81.1378C212.738 81.358 212.654 81.6331 212.366 81.7964C212.322 81.8213 212.271 81.8282 212.223 81.8158C212.175 81.8034 212.133 81.7726 212.107 81.73C211.897 81.3907 212.002 81.1073 212.091 80.8786C212.117 80.8129 212.139 80.7457 212.157 80.6773C212.435 79.6263 212.84 78.6132 213.364 77.6605C214.446 75.8133 214.771 73.9724 214.358 72.0156C214.328 71.8712 214.294 71.7205 214.26 71.5635C213.944 70.1357 213.53 68.2221 213.894 66.533C213.776 64.8691 213.776 63.1989 213.894 61.5351C213.964 60.5509 214.136 59.5751 214.262 58.5951C214.368 57.8354 215.12 56.4508 215.12 56.4508C215.616 55.5446 216.203 54.6868 216.751 53.808C216.886 53.5899 217.014 53.3665 217.14 53.1526C216.513 52.6879 216.483 52.6657 216.119 53.1694C215 54.7111 214.202 56.4614 213.772 58.317C213.51 59.4742 213.07 60.5837 212.467 61.6057C212.09 62.2432 211.729 62.8912 211.388 63.5498C210.531 65.1989 209.917 66.9229 209.831 68.7985Z" fill="#F74700"/>
<path d="M328.185 75.0611C328.348 75.2266 328.577 75.3256 328.777 75.4563L329 75.2455C326.485 72.5827 325.168 69.3593 324.35 65.8072C326.077 67.4215 327.731 68.961 329.376 70.5121C329.614 70.7404 329.826 70.9941 330.008 71.2687C331.197 73.0264 332.39 74.7819 333.552 76.5564C335.036 78.8219 336.46 81.1265 337.973 83.372C338.816 84.6291 339.925 85.6502 341.322 86.3046C342.205 86.7176 343.151 87.0991 344.006 86.3752C344.862 85.6512 344.654 84.6649 344.428 83.7145C344.334 83.3161 344.273 82.9115 344.197 82.509L344.485 82.3478C345.102 82.9515 348.616 86.941 349.877 88.2097C352.055 90.4025 354.35 92.4616 357.764 92.294C357.764 92.294 359.943 91.901 359.681 90.313C359.593 89.7861 359.658 89.177 359.417 88.726C358.957 87.862 358.336 87.0833 357.78 86.2719C357.651 86.0854 357.515 85.9052 357.382 85.7218L357.534 85.5638C358.352 86.0991 359.178 86.6175 359.985 87.1739C361.281 88.0822 362.78 88.6609 364.351 88.8599C365.411 88.9853 366.573 88.9421 367.584 88.6302C369.66 87.9884 370.197 85.686 368.784 84.038C368.649 83.8799 368.503 83.7324 368.126 83.3235C368.675 83.3046 369.009 83.3456 369.316 83.2719C370.203 83.0611 371.107 82.8799 371.95 82.5448C373.823 81.8072 374.26 79.6112 372.778 78.2793C372.225 77.8063 371.566 77.4779 370.856 77.3235C369.827 77.098 368.748 77.0906 367.694 76.9884C367.434 76.9631 367.175 76.9305 366.838 76.8936C367.269 76.3235 367.681 75.8957 367.957 75.392C368.731 73.9758 367.957 72.4784 366.35 72.3446C365.694 72.2914 365.035 72.3764 364.414 72.5943C363.181 73.0443 361.99 73.6017 360.796 74.1591C359.272 74.8736 357.785 75.667 356.25 76.353C355.65 76.6207 354.975 76.9083 354.236 76.5153C354.522 75.7039 355.284 75.509 355.847 75.0812C356.743 74.3983 357.675 73.7408 358.464 72.9452C359.156 72.2487 359.507 71.3225 359.043 70.3277C358.662 69.5121 357.623 69.1191 356.472 69.274C356.326 69.2895 356.182 69.3203 356.042 69.3657C354.392 69.9473 352.719 70.4753 351.1 71.136C349.51 71.7851 347.983 72.5901 346.412 73.2887C345.723 73.5943 344.994 73.8304 344.16 73.4942C344.411 73.176 344.719 72.9076 345.068 72.7029C345.823 72.2561 346.649 71.9178 347.342 71.3899C348.468 70.5279 348.254 69.0864 346.921 68.6365C346.263 68.4276 345.565 68.3867 344.888 68.5174C343.596 68.7745 342.323 69.1246 341.082 69.5648C337.949 70.6744 334.798 70.8852 331.585 69.9863C331.364 69.9405 331.138 69.9105 330.913 69.8968L330.901 69.9231C331.689 70.6344 332.605 71.2013 333.495 71.7482C333.818 71.9463 334.141 72.1454 334.459 72.3509C334.484 72.3697 334.512 72.384 334.542 72.3931C334.97 72.376 335.4 72.3827 335.828 72.4131C336.499 72.4479 337.133 72.4816 337.773 72.3414C339.294 72.0069 340.79 71.5736 342.254 71.0443L342.32 71.0169C342.394 70.9746 342.477 70.9489 342.562 70.9415C342.647 70.9341 342.733 70.945 342.813 70.9737C342.961 71.0401 343.071 71.1844 343.149 71.412C343.168 71.4698 343.164 71.5328 343.138 71.5879C343.113 71.643 343.066 71.6861 343.009 71.7081L342.36 71.9705C340.704 72.6228 339.005 73.2908 337.121 73.3783C336.864 73.4099 336.592 73.4387 336.305 73.4647C337.847 74.3003 339.318 75.0453 340.784 75.7187C341.417 75.9985 342.104 76.1323 342.797 76.1096C344.566 76.0959 346.084 75.7756 347.439 75.1328C349.353 74.2245 351.272 73.3256 353.13 72.4552C353.204 72.4205 353.278 72.3815 353.351 72.3435C353.63 72.196 353.944 72.0274 354.328 72.059C354.353 72.0521 354.379 72.0492 354.406 72.0506C354.457 72.0533 354.507 72.0729 354.546 72.1064C354.586 72.14 354.612 72.1855 354.624 72.2361C354.637 72.2991 354.627 72.3649 354.594 72.4205C354.594 72.4205 354.594 72.4205 354.594 72.4278L354.76 72.3657C354.698 72.4036 354.633 72.4373 354.571 72.471C354.431 72.7482 354.174 72.8736 353.961 72.9737L353.911 72.9979C353.535 73.1781 353.162 73.3636 352.788 73.549C352.215 73.8335 351.622 74.1286 351.026 74.3983C350.605 74.5922 350.169 74.7998 349.751 75C347.952 75.8662 346.098 76.7577 343.911 76.9157L345.033 77.2519C347.504 77.9895 350.059 78.7598 352.631 79.2877C353.608 79.487 354.615 79.4801 355.59 79.2677C357.741 78.8325 359.862 77.8894 362.262 76.3024L362.415 76.1971C363.204 75.6702 364.02 75.1317 365.2 74.7903C365.251 74.7756 365.305 74.7778 365.353 74.7969C365.401 74.8158 365.443 74.8505 365.469 74.8954C365.496 74.9403 365.508 74.9928 365.502 75.0447C365.495 75.0966 365.472 75.145 365.435 75.1823C364.97 75.6618 364.487 75.9294 364.054 76.1655C363.809 76.2909 363.574 76.4346 363.351 76.5954C362.454 77.2629 361.511 77.8655 360.529 78.3983C359.204 79.136 357.766 79.5943 356.367 80.0264H356.404L356.478 80.0348C360.166 80.4963 363.558 80.6312 366.845 80.4468C367.041 80.4363 367.236 80.411 367.444 80.3836C368.006 80.3098 368.587 80.2339 369.175 80.4584C369.203 80.4564 369.231 80.4596 369.258 80.4679C369.296 80.4798 369.331 80.5012 369.359 80.53C369.387 80.559 369.407 80.5945 369.417 80.6333L369.425 80.6618C369.433 80.6941 369.435 80.7279 369.429 80.7609C369.424 80.7939 369.411 80.8254 369.393 80.8532C369.374 80.8812 369.35 80.9048 369.321 80.9227C369.294 80.9405 369.261 80.9522 369.229 80.9568C369.018 81.1012 368.76 81.1064 368.556 81.1159L368.445 81.1223C365.923 81.3035 362.93 81.4626 359.849 81.2698C358.381 81.1792 356.907 80.9948 355.236 80.7429L355.647 81.0074C356.563 81.5996 357.428 82.1591 358.288 82.6934C359.048 83.1676 359.887 83.5364 360.698 83.902C361.21 84.1307 361.74 84.3667 362.251 84.628C363.173 85.0991 364.021 85.4025 364.919 85.7229C365.27 85.8493 365.631 85.9779 366.011 86.1223C366.059 86.1403 366.1 86.1737 366.127 86.2173C366.155 86.2609 366.166 86.3122 366.162 86.3636C366.157 86.4211 366.131 86.4746 366.087 86.5132L366.213 86.5437C366.16 86.5437 366.107 86.5437 366.055 86.5437C366.031 86.5611 366.002 86.5734 365.973 86.5796C365.235 86.7239 364.835 86.6955 364.125 86.4458C363.694 86.2954 363.27 86.1349 362.851 85.9642C362.784 85.9368 362.719 85.9083 362.652 85.8799C361.511 85.4073 360.405 84.8545 359.341 84.2255C359.211 84.1475 359.082 84.0664 358.954 83.9863C358.449 83.7102 357.948 83.4268 357.455 83.1317C357.398 83.1064 357.342 83.0791 357.284 83.0559C356.986 82.9229 356.704 82.7579 356.441 82.5638C356.056 82.2993 355.691 82.0495 355.237 82.0074C355.18 82.0018 355.126 81.9757 355.087 81.9336C354.91 81.7471 354.72 81.5742 354.517 81.4162C353.725 80.9821 352.921 80.5733 352.094 80.2202C351.688 80.0906 351.271 79.9737 350.847 79.8567C350.567 79.7787 350.287 79.7008 350.004 79.6186C349.018 79.3256 348.002 79.0727 347.015 78.8272L346.042 78.5838C345.956 78.56 345.874 78.5245 345.797 78.4784C345.759 78.4558 345.72 78.4353 345.68 78.4173C345.804 78.5628 345.948 78.6896 346.109 78.7935C346.259 78.8963 346.4 79.0127 346.53 79.1412C347.614 80.2866 348.544 81.5733 349.444 82.8177L349.786 83.2909C351.664 85.8778 353.685 87.7956 355.977 89.1539C356 89.1676 356.025 89.1802 356.05 89.1929C356.185 89.2603 356.437 89.3867 356.439 89.7197C356.44 89.7628 356.429 89.8053 356.408 89.8425C356.386 89.8797 356.354 89.9101 356.316 89.9305C355.902 90.1549 355.558 89.941 355.331 89.7988C353.473 88.6396 351.695 87.4563 350.367 85.6713C350.07 85.2722 349.772 84.8722 349.476 84.471C348.478 83.1244 347.448 81.7313 346.391 80.3983C345.204 78.902 343.882 77.9115 342.347 77.3709C341.248 77.0017 340.189 76.5227 339.185 75.941C339.078 75.8785 338.96 75.8347 338.838 75.8114C338.742 75.7935 338.709 75.8114 338.692 75.8325C338.704 75.8546 338.718 75.8761 338.731 75.8968C339.242 76.6837 339.649 77.5338 339.941 78.4257C340.439 79.8707 341.046 81.2759 341.758 82.6291L341.829 82.7566C341.973 83.0032 342.145 83.3098 342.056 83.705C342.041 83.7648 342.004 83.8168 341.953 83.8498C341.901 83.8828 341.838 83.8943 341.778 83.882C341.297 83.7829 341.13 83.45 340.995 83.1813C340.958 83.1019 340.916 83.0252 340.868 82.9515C340.252 82.0274 339.468 80.3667 339.157 79.3256C338.401 76.7966 337.007 74.9484 334.898 73.6797C334.742 73.5859 334.582 73.489 334.407 73.3878C332.855 72.4689 330.777 71.2361 329.56 69.489C327.957 68.1969 326.447 66.7933 325.042 65.2887C324.214 64.3962 323.477 63.4205 322.698 62.4826C322.1 61.745 321.485 59.9041 321.485 59.9041C321.083 58.6934 319.272 57.3182 318.628 56.216C318.468 55.9421 318.297 55.6744 318.137 55.4131C317.269 55.8293 317.227 55.8504 317.567 56.5374C318.621 58.6607 320.717 60.7345 322.036 62.6923C322.86 63.9022 323.491 65.2328 323.906 66.6365C324.164 67.5142 324.446 68.3867 324.754 69.2476C325.525 71.4015 326.564 73.4068 328.185 75.0611Z" fill="#F74700"/>
<path d="M347.159 18.1053C346.684 16.5932 344.728 15.6954 343.43 17.4394L343.376 17.4236C342.586 18.9336 342.428 20.9694 343.22 22.5584C343.42 22.8524 343.588 23.1823 343.35 23.5015C342.562 24.256 341.39 23.2381 340.466 23.2318C337.809 22.9768 338.93 26.1823 337.621 27.727L337.636 27.7429C337.631 27.7429 335.175 29.5637 334.006 30.6185C334.79 26.7081 335.513 25.2855 333.256 21.5743L332.801 22.2645C334.71 24.2012 333.72 29.9852 332.978 31.2307C333.069 31.1254 332.346 32.0263 332.022 32.374C331.792 33.393 331.185 34.2086 330.589 35.0316C330.19 35.5816 330.407 35.8113 331.02 35.8135C331.03 35.8111 331.04 35.8064 331.047 35.7997C331.055 35.7929 331.061 35.7843 331.065 35.7746C331.068 35.7649 331.071 35.7544 331.068 35.7441C331.067 35.7338 331.064 35.724 331.058 35.7155C331.309 35.4575 331.503 35.1499 331.627 34.8124C331.69 34.7837 331.743 34.7376 331.781 34.6795C331.818 34.6214 331.838 34.5538 331.838 34.4847C332.575 33.5669 333.32 32.6522 334.06 31.7344H334.067C334.792 31.0695 335.562 30.4594 336.34 29.8619L336.318 29.8303C337.723 28.8493 338.801 27.3898 340.476 26.8535C340.593 26.8421 340.704 26.7972 340.796 26.7243C340.887 26.6514 340.956 26.5535 340.993 26.4425C342.385 26.1591 343.338 25.8103 344.3 25.3224C344.782 25.354 345.216 25.137 345.693 25.0674C345.828 25.0397 345.947 24.9627 346.027 24.8514C346.797 23.8556 346.995 22.3783 346.493 21.2961C346.007 20.5184 345.899 20.1812 346.019 20.1454C346.178 20.0326 346.373 20.2444 346.474 20.3719C347.601 21.3056 347.584 23.3909 346.782 24.804C351.587 24.0495 353.891 21.6607 353.962 16.863C354.146 16.4415 354.527 16.5247 354.52 17.1675C354.635 20.1043 353.391 22.7418 351.026 24.0073C353.079 24.0189 354.982 23.6006 356.979 22.8545C359.297 21.9705 359.496 20.5026 360.91 19.0274L360.922 18.7861L361.208 19.1211L361.125 19.1633C360.842 21.02 359.159 22.4151 357.506 23.4162C359.477 23.3983 361.484 23.5985 363.424 23.7797C364.127 24.0021 366.492 23.6522 366.585 24.4794C363.095 24.4868 359.237 23.8777 356.306 24.1285C358.495 24.6975 360.163 26.2908 361.754 27.7344C362.198 28.1117 362.766 28.3582 363.019 28.9483C361.672 29.0832 360.689 27.6196 359.706 26.902C356.415 23.7597 353.458 24.3203 349.391 25.0442C354.027 25.1496 354.966 30.2718 356.303 33.7091C356.398 33.8493 356.492 34.0948 356.198 34.236C355.088 33.2202 354.887 31.4615 354.34 30.1096C353.274 26.6132 349.903 24.8872 346.661 25.4731C346.38 25.8314 346.044 25.4172 345.818 25.6111C345.702 25.7165 345.331 25.8545 345.662 25.9578C347.841 26.9515 348.203 29.1928 348.099 31.6659C348.098 31.7013 348.083 31.7352 348.06 31.7613C348.036 31.7874 348.003 31.8042 347.968 31.8086C347.933 31.813 347.898 31.8048 347.867 31.7854C347.838 31.766 347.817 31.7367 347.806 31.7028C347.467 30.6607 347.436 29.57 347.051 28.5268C345.88 25.3192 343.243 26.2518 340.907 27.4046C341.742 27.6417 342.342 27.8598 342.545 28.7608C342.208 28.824 341.984 28.6101 341.769 28.4309C340.661 27.6933 339.628 27.6817 338.671 28.6775L338.585 28.609L338.457 28.6838C338.468 28.7976 338.735 28.8282 338.793 28.9273C339.65 28.9104 340.284 29.6859 340.958 30.1233C342.02 30.8324 343.276 30.6111 344.032 29.5827C344.18 29.3814 344.236 29.0326 344.545 29.0558C344.895 29.0822 344.927 29.4562 345.028 29.7102C345.555 31.6069 347.615 34.5627 349.635 32.5764C350.604 31.6701 349.912 30.3077 349.79 29.2044C350.292 26.5606 352.048 32.5184 352.415 32.9631C353.425 36.0295 357.907 37.471 358.657 33.4341C359.332 31.805 357.295 28.7702 358.491 27.9304C359.64 27.746 361.283 30.9599 362.848 31.2845C364.304 31.8398 365.513 31.0737 365.606 29.5258C365.197 26.2529 366.146 27.0316 368.724 26.276C370.053 25.9673 370.299 24.0358 369.204 23.2824C367.902 21.9747 364.538 22.5447 364.391 20.3266C364.391 18.8061 363.999 16.7544 362.396 16.6385C361.101 16.3909 360.204 16.8577 359.485 18.1528C359.342 18.295 359.256 18.6512 359.063 18.5932C357.7 18.1907 358.106 16.5174 357.859 15.1064C357.619 13.6491 355.745 12.8809 354.374 13.3962C354.396 13.4088 354.419 13.4215 354.44 13.4362C354.419 13.4215 354.396 13.4088 354.374 13.3962C353.191 13.8071 352.323 14.8714 351.77 15.9979C351.197 17.9863 349.778 20.9631 347.766 18.9252L347.159 18.1053ZM359.516 18.1886L359.562 18.2465L359.516 18.1886Z" fill="#B53A25"/>
<path d="M172.348 22.1856C172.185 22.0202 171.956 21.9211 171.757 21.7915L171.533 22.0023C174.048 24.6651 175.366 27.8895 176.182 31.4406C174.456 29.8274 172.802 28.2868 171.157 26.7357C170.919 26.5077 170.707 26.2542 170.525 25.9801C169.336 24.2225 168.143 22.467 166.981 20.6914C165.497 18.4259 164.073 16.1213 162.555 13.8758C161.712 12.6198 160.603 11.5976 159.205 10.9443C158.322 10.5302 157.377 10.1498 156.522 10.8727C155.666 11.5955 155.874 12.5829 156.1 13.5334C156.194 13.9317 156.255 14.3374 156.33 14.7388L156.043 14.9001C155.426 14.2963 151.912 10.3079 150.651 9.03809C148.473 6.84526 146.178 4.7873 142.764 4.95379C142.764 4.95379 140.585 5.34684 140.847 6.93483C140.935 7.4617 140.87 8.07076 141.111 8.52281C141.571 9.38583 142.192 10.1645 142.748 10.977C142.876 11.1624 143.013 11.3426 143.145 11.526L142.996 11.6872C142.178 11.1519 141.351 10.6335 140.545 10.0771C139.248 9.16961 137.749 8.59101 136.179 8.3911C135.119 8.2657 133.957 8.3089 132.946 8.62081C130.87 9.26254 130.333 11.565 131.746 13.213C131.881 13.3711 132.027 13.5197 132.404 13.9275C131.855 13.9464 131.521 13.9053 131.214 13.9791C130.327 14.1898 129.423 14.3721 128.58 14.7062C126.707 15.4438 126.27 17.6408 127.752 18.9728C128.304 19.4452 128.965 19.7735 129.674 19.9285C130.703 20.154 131.782 20.1603 132.836 20.2626C133.096 20.2878 133.355 20.3205 133.692 20.3584C133.261 20.9275 132.849 21.3553 132.573 21.859C131.799 23.2752 132.573 24.7736 134.18 24.9064C134.836 24.9596 135.495 24.8746 136.116 24.6567C137.349 24.2067 138.54 23.6493 139.734 23.0918C141.257 22.3774 142.745 21.5839 144.28 20.898C144.88 20.6303 145.555 20.3426 146.294 20.7357C146.008 21.5471 145.24 21.742 144.683 22.1709C143.787 22.8537 142.855 23.5102 142.065 24.3058C141.374 25.0023 141.023 25.9285 141.487 26.9232C141.868 27.7399 142.907 28.1329 144.058 27.977C144.203 27.9611 144.348 27.9303 144.487 27.8853C146.138 27.3036 147.811 26.7757 149.43 26.114C151.02 25.4649 152.547 24.6598 154.118 23.9622C154.807 23.6556 155.536 23.4196 156.37 23.7515C156.119 24.0697 155.81 24.3384 155.462 24.5439C154.707 24.9896 153.881 25.3279 153.188 25.8558C152.062 26.7188 152.276 28.1603 153.609 28.6092C154.266 28.8184 154.965 28.8597 155.642 28.7294C156.934 28.4718 158.205 28.1215 159.448 27.6809C162.581 26.5713 165.732 26.3616 168.945 27.2594C169.167 27.3051 169.392 27.3354 169.618 27.35L169.629 27.3237C168.841 26.6124 167.925 26.0455 167.035 25.4986C166.712 25.2994 166.389 25.1003 166.071 24.8948C166.045 24.8766 166.018 24.8623 165.988 24.8526C165.56 24.87 165.13 24.8637 164.702 24.8337C164.031 24.7979 163.397 24.7652 162.757 24.9053C161.235 25.2402 159.737 25.6746 158.272 26.2056C158.25 26.213 158.228 26.2225 158.205 26.232C158.132 26.2745 158.048 26.3004 157.963 26.3078C157.879 26.3152 157.792 26.3042 157.712 26.2752C157.565 26.2088 157.455 26.0644 157.377 25.8368C157.358 25.7791 157.361 25.7161 157.388 25.661C157.413 25.6059 157.459 25.5628 157.516 25.5407C157.738 25.4554 157.958 25.3679 158.178 25.2815C159.835 24.6282 161.533 23.9612 163.417 23.8727C163.674 23.8411 163.946 23.8126 164.234 23.7873C162.691 22.9517 161.22 22.2067 159.754 21.5323C159.121 21.253 158.433 21.1193 157.742 21.1414C155.973 21.1561 154.454 21.4754 153.098 22.1192C151.185 23.0265 149.267 23.9254 147.408 24.7957C147.333 24.8305 147.259 24.8695 147.185 24.9085C146.907 25.056 146.593 25.2246 146.21 25.192C146.184 25.1994 146.158 25.2023 146.132 25.2004C146.08 25.1979 146.031 25.1783 145.992 25.1447C145.952 25.1111 145.924 25.0655 145.914 25.0149C145.9 24.952 145.91 24.8864 145.942 24.8305V24.8242L145.777 24.8853C145.839 24.8484 145.902 24.8147 145.965 24.7799C146.105 24.5018 146.362 24.3774 146.575 24.2763L146.625 24.2531C147.001 24.0729 147.374 23.8874 147.748 23.702C148.321 23.4164 148.915 23.1224 149.51 22.8516C149.932 22.6588 150.368 22.4501 150.785 22.2499C152.585 21.3837 154.438 20.4923 156.625 20.3342L155.504 19.9991C153.033 19.2615 150.477 18.4912 147.905 17.9622C146.928 17.7635 145.921 17.7703 144.946 17.9823C142.795 18.4185 140.674 19.3605 138.274 20.9485L138.121 21.0539C137.332 21.5808 136.516 22.1192 135.336 22.4617C135.286 22.4765 135.232 22.4742 135.184 22.4552C135.135 22.4362 135.094 22.4015 135.067 22.3566C135.04 22.3118 135.029 22.2593 135.035 22.2073C135.041 22.1554 135.064 22.107 135.101 22.0697C135.566 21.5892 136.05 21.3226 136.483 21.0866C136.727 20.9608 136.962 20.817 137.185 20.6566C138.08 19.989 139.021 19.3862 140.001 18.8526C141.326 18.115 142.764 17.6577 144.163 17.2257H144.126L144.052 17.2162C140.364 16.7546 136.972 16.6198 133.685 16.8042C133.489 16.8147 133.294 16.8411 133.086 16.8674C132.524 16.9412 131.943 17.0181 131.355 16.7936C131.327 16.7948 131.299 16.7912 131.272 16.7831C131.234 16.7712 131.199 16.7498 131.171 16.7209C131.143 16.6919 131.123 16.6564 131.113 16.6177L131.105 16.5892C131.097 16.5569 131.095 16.523 131.101 16.4901C131.106 16.4571 131.119 16.4256 131.137 16.3977C131.156 16.3698 131.18 16.3462 131.208 16.3284C131.236 16.3105 131.268 16.2989 131.301 16.2942C131.512 16.1498 131.77 16.1456 131.974 16.135C132.012 16.135 132.048 16.135 132.085 16.1287C134.607 15.9475 137.6 15.7894 140.681 15.9812C142.149 16.0729 143.623 16.2573 145.294 16.5081L144.889 16.2278C143.974 15.6356 143.109 15.076 142.249 14.5418C141.488 14.0666 140.649 13.6935 139.839 13.3321C139.327 13.1045 138.797 12.8685 138.286 12.6071C137.364 12.135 136.515 11.8316 135.618 11.5112C135.267 11.3858 134.905 11.2562 134.526 11.1129C134.478 11.0947 134.437 11.0613 134.409 11.0178C134.382 10.9741 134.37 10.9228 134.374 10.8716C134.379 10.8138 134.406 10.7599 134.449 10.7209C134.407 10.7114 134.366 10.6999 134.324 10.6914H134.482C134.506 10.6745 134.534 10.6623 134.564 10.6556C135.301 10.5123 135.702 10.5407 136.411 10.7894C136.842 10.9404 137.266 11.1013 137.685 11.272C137.752 11.2984 137.818 11.3268 137.884 11.3553C139.025 11.8283 140.132 12.3811 141.195 13.0097C141.326 13.0876 141.454 13.1688 141.583 13.2499C142.087 13.526 142.588 13.8084 143.081 14.1034C143.138 14.1287 143.193 14.1572 143.252 14.1804C143.55 14.3126 143.832 14.4773 144.095 14.6714C144.481 14.9359 144.845 15.1856 145.298 15.2278C145.356 15.233 145.409 15.2593 145.449 15.3015C145.626 15.4882 145.817 15.6614 146.019 15.82C146.811 16.2541 147.615 16.663 148.443 17.0149C148.848 17.1445 149.266 17.2615 149.689 17.3795C149.969 17.4575 150.25 17.5355 150.532 17.6177C151.518 17.9095 152.534 18.1635 153.522 18.408L154.494 18.6514C154.581 18.6753 154.663 18.7107 154.74 18.7568C154.79 18.7852 154.827 18.8052 154.857 18.8179C154.733 18.6717 154.588 18.5446 154.428 18.4406C154.277 18.3379 154.136 18.2219 154.006 18.094C152.922 16.9475 151.993 15.6609 151.093 14.4175L150.75 13.9433C148.873 11.3563 146.851 9.43852 144.558 8.08024C144.536 8.06654 144.511 8.05495 144.487 8.04231C144.351 7.97382 144.099 7.84737 144.097 7.51544C144.096 7.47237 144.107 7.4299 144.129 7.39271C144.151 7.35552 144.182 7.32506 144.22 7.30469C144.634 7.08024 144.978 7.29521 145.205 7.43641C147.063 8.59552 148.841 9.77993 150.17 11.5639C150.467 11.9636 150.764 12.3637 151.06 12.7641C152.058 14.1108 153.089 15.5039 154.145 16.8379C155.332 18.3342 156.654 19.3237 158.19 19.8642C159.289 20.2335 160.348 20.7126 161.351 21.2942C161.458 21.3569 161.576 21.4007 161.699 21.4238C161.795 21.4417 161.827 21.4238 161.844 21.4027C161.835 21.3848 161.818 21.3574 161.805 21.3384C161.294 20.5515 160.887 19.7013 160.595 18.8094C160.097 17.364 159.49 15.9585 158.779 14.605L158.707 14.4775C158.564 14.232 158.391 13.9254 158.481 13.5291C158.494 13.4692 158.531 13.417 158.584 13.384C158.635 13.351 158.699 13.3395 158.759 13.3521C159.239 13.4501 159.407 13.7842 159.542 14.0518C159.579 14.1308 159.621 14.2075 159.667 14.2815C160.285 15.2056 161.067 16.8663 161.379 17.9074C162.135 20.4364 163.529 22.2857 165.639 23.5534C165.795 23.6472 165.955 23.7441 166.13 23.8453C167.682 24.7641 169.76 25.9981 170.977 27.7441C172.58 29.0361 174.089 30.44 175.493 31.9454C176.322 32.8368 177.059 33.8137 177.838 34.7515C178.436 35.4838 179.052 37.3289 179.052 37.3289C179.453 38.5407 181.265 39.9148 181.908 41.017C182.069 41.291 182.239 41.5576 182.399 41.8189C183.268 41.4027 183.31 41.3816 182.969 40.6946C181.916 38.5713 179.82 36.4975 178.501 34.5397C177.677 33.3298 177.045 31.9992 176.63 30.5955C176.372 29.7175 176.091 28.8471 175.787 27.9844C175.008 25.8453 173.973 23.8411 172.348 22.1856Z" fill="#F74700"/>
<path d="M153.233 82.0262C153.708 83.5383 155.663 84.4361 156.961 82.6922L157.015 82.708C157.806 81.198 157.963 79.1621 157.172 77.5741C156.971 77.2791 156.803 76.9493 157.041 76.631C157.829 75.8755 159.001 76.8934 159.925 76.9008C162.582 77.1547 161.46 73.9503 162.77 72.4045L162.754 72.3897C162.754 72.3897 165.216 70.5689 166.386 69.513C165.602 73.4235 164.879 74.846 167.135 78.5573L167.59 77.8681C165.681 75.9314 166.671 70.1463 167.413 68.9008C167.322 69.0062 168.045 68.1063 168.369 67.7585C168.599 66.7385 169.205 65.9229 169.803 65.1C170.202 64.5499 169.984 64.3202 169.372 64.3181C169.361 64.3202 169.352 64.3248 169.345 64.3316C169.336 64.3383 169.33 64.3468 169.326 64.3565C169.322 64.3663 169.32 64.3768 169.322 64.3872C169.324 64.3975 169.327 64.4075 169.333 64.4161C169.082 64.6742 168.888 64.9823 168.764 65.3202C168.701 65.3485 168.648 65.3945 168.61 65.4524C168.573 65.5104 168.553 65.5779 168.553 65.6468C167.816 66.5647 167.071 67.4804 166.331 68.3971H166.324C165.599 69.061 164.829 69.6711 164.051 70.2686L164.073 70.3012C162.668 71.2812 161.59 72.7406 159.915 73.277C159.798 73.2888 159.688 73.3338 159.596 73.4066C159.505 73.4795 159.436 73.5771 159.398 73.6879C158.006 73.9714 157.053 74.3202 156.091 74.8081C155.609 74.7765 155.176 74.9935 154.698 75.0631C154.564 75.0918 154.445 75.1691 154.364 75.2801C153.594 76.2759 153.396 77.7533 153.899 78.8344C154.385 79.6131 154.492 79.9503 154.372 79.9862C154.213 80.0979 154.018 79.886 153.917 79.7585C152.79 78.826 152.808 76.7396 153.61 75.3265C148.804 76.081 146.499 78.4698 146.429 83.2675C146.244 83.689 145.865 83.6068 145.871 82.963C145.756 80.0273 147.001 77.3887 149.365 76.1242C147.312 76.1115 145.409 76.5299 143.412 77.2759C141.094 78.16 140.895 79.6279 139.481 81.1031L139.469 81.3444L139.183 81.0093L139.266 80.9672C139.55 79.1105 141.233 77.7164 142.886 76.7143C140.914 76.7333 138.907 76.532 136.968 76.3507C136.264 76.1284 133.899 76.4793 133.807 75.6511C137.296 75.6447 141.154 76.2528 144.085 76.002C141.896 75.4329 140.228 73.8397 138.636 72.3961C138.193 72.0199 137.625 71.7722 137.372 71.1822C138.719 71.0473 139.702 72.5109 140.684 73.2285C143.975 76.3718 146.932 75.8112 150.999 75.0863C146.362 74.9809 145.424 69.8587 144.086 66.4214C143.992 66.2812 143.898 66.0357 144.192 65.8945C145.301 66.9103 145.502 68.669 146.048 70.022C147.115 73.5172 150.486 75.2443 153.728 74.6584C154.008 74.3002 154.346 74.7132 154.571 74.5193C154.686 74.414 155.057 74.2759 154.726 74.1737C152.547 73.179 152.184 70.9377 152.29 68.4646C152.291 68.4291 152.306 68.3955 152.33 68.3696C152.353 68.3436 152.386 68.327 152.421 68.3227C152.456 68.3184 152.492 68.3267 152.522 68.3461C152.551 68.3655 152.572 68.3948 152.583 68.4287C152.921 69.4698 152.952 70.5604 153.337 71.6036C154.508 74.8123 157.144 73.8787 159.482 72.7259C158.647 72.4888 158.045 72.2707 157.843 71.3708C158.18 71.3075 158.404 71.5204 158.62 71.6995C159.727 72.4372 160.76 72.4498 161.717 71.453L161.803 71.5225L161.93 71.4466C161.92 71.3328 161.652 71.3023 161.595 71.2032C160.738 71.2211 160.103 70.4445 159.43 70.0072C158.368 69.2981 157.112 69.5193 156.356 70.5478C156.208 70.7501 156.152 71.0979 155.843 71.0747C155.493 71.0483 155.46 70.6742 155.359 70.4203C154.832 68.5236 152.772 65.5731 150.752 67.5541C149.784 68.4603 150.475 69.8239 150.599 70.9261C150.097 73.571 148.339 67.6121 147.974 67.1674C146.963 64.101 142.481 62.6595 141.73 66.6974C141.056 68.3265 143.093 71.3613 141.897 72.2001C140.749 72.3855 139.104 69.1706 137.54 68.846C136.083 68.2907 134.875 69.0568 134.783 70.6047C135.191 73.8776 134.241 73.1 131.665 73.8544C130.335 74.1632 130.084 76.0947 131.184 76.8481C132.486 78.1569 135.849 77.5857 135.997 79.7986C135.997 81.3202 136.39 83.3708 137.992 83.4867C139.287 83.7333 140.184 83.2664 140.903 81.9714C141.045 81.8291 141.132 81.474 141.325 81.532C142.694 81.9335 142.281 83.6068 142.53 85.0188C142.769 86.4751 144.644 87.2433 146.015 86.728C145.992 86.7163 145.968 86.7029 145.947 86.6879C145.968 86.7029 145.992 86.7163 146.015 86.728C147.197 86.3181 148.064 85.2527 148.617 84.1263C149.191 82.1389 150.61 79.1621 152.622 81.199L153.233 82.0262ZM140.875 81.943C140.86 81.924 140.845 81.904 140.829 81.886C140.845 81.904 140.86 81.924 140.875 81.943Z" fill="#B53A25"/>
<path d="M185.142 76.9387C184.299 76.3423 184.171 77.3096 183.795 77.8091C183.418 78.3086 182.625 78.6047 182.1 78.9461C181.765 79.1632 181.104 79.5225 180.616 79.984C179.908 80.6532 179.504 82.1474 179.993 82.7765C181.098 82.709 182.067 82.5552 183.854 82.6331C184.55 82.6637 186.277 82.8787 186.978 82.8892C187.679 82.8997 189.007 83.2675 189.246 82.7427C189.679 81.7944 188.663 80.1189 187.886 79.4171C186.76 78.4003 186.411 78.708 185.743 78.0884C185.29 77.67 185.142 76.9387 185.142 76.9387Z" fill="#A88771"/>
<path d="M195.341 78.3192C194.414 77.8618 194.44 78.8376 194.145 79.3898C193.85 79.9419 193.114 80.3571 192.649 80.7754C192.352 81.042 191.756 81.5004 191.345 82.0326C190.75 82.8028 190.583 84.3424 191.163 84.8871C192.246 84.649 193.179 84.3455 194.957 84.1495C195.649 84.0715 197.393 84.0136 198.082 83.9156C198.771 83.8176 200.146 83.9735 200.295 83.4182C200.574 82.4098 199.311 80.9166 198.434 80.3445C197.163 79.5152 196.866 79.8734 196.116 79.3655C195.605 79.0189 195.341 78.3192 195.341 78.3192Z" fill="#A88771"/>
<path d="M184.721 90.5217C184.721 90.5217 178.866 88.2909 180.465 82.2856L188.721 82.3773C188.721 82.3773 189.941 87.607 184.721 90.5217Z" fill="#B8CDB4"/>
<path d="M197.04 91.8019C197.04 91.8019 190.909 90.51 191.553 84.3288L199.723 83.1401C199.723 83.1401 201.746 88.1106 197.04 91.8019Z" fill="#B8CDB4"/>
<path d="M317.353 21.1642C318.196 21.7617 318.325 20.7933 318.701 20.2938C319.077 19.7944 319.871 19.4993 320.396 19.1579C320.73 18.9408 321.391 18.5805 321.879 18.1189C322.587 17.4508 322.992 15.9566 322.503 15.3276C321.397 15.3939 320.428 15.5488 318.642 15.4698C317.945 15.4393 316.218 15.2253 315.517 15.2148C314.817 15.2043 313.488 14.8355 313.25 15.3602C312.817 16.3086 313.832 17.9851 314.609 18.6858C315.736 19.7037 316.084 19.396 316.752 20.0156C317.202 20.4329 317.353 21.1642 317.353 21.1642Z" fill="#A88771"/>
<path d="M317.775 7.58691C317.775 7.58691 323.629 9.81768 322.031 15.824L313.776 15.7313C313.776 15.7313 312.551 10.4963 317.775 7.58691Z" fill="#B8CDB4"/>
<path d="M307.151 19.7838C308.078 20.2411 308.053 19.2664 308.347 18.7142C308.641 18.1621 309.378 17.7469 309.843 17.3275C310.14 17.0609 310.737 16.6025 311.148 16.0704C311.742 15.3001 311.909 13.7617 311.329 13.2158C310.247 13.454 309.314 13.7574 307.535 13.9587C306.843 14.0367 305.1 14.0936 304.41 14.1916C303.72 14.2896 302.346 14.1336 302.192 14.6889C301.913 15.6974 303.176 17.1905 304.053 17.7627C305.323 18.592 305.621 18.2337 306.377 18.7416C306.887 19.0852 307.151 19.7838 307.151 19.7838Z" fill="#A88771"/>
<path d="M305.452 6.30127C305.452 6.30127 311.583 7.59316 310.939 13.7744L302.769 14.9683C302.769 14.9683 300.746 9.99358 305.452 6.30127Z" fill="#B8CDB4"/>
<path d="M207.626 47.6415C207.506 47.5786 207.378 47.5289 207.248 47.4929C205.541 47.22 204.508 45.925 204.694 44.2021C204.841 42.8691 204.98 41.534 205.019 40.1979C205.048 39.2148 205.38 38.2474 205.163 37.2548C205.19 37.1895 205.216 37.1241 205.243 37.0588C205.042 37.0588 205.194 37.1916 205.165 37.2559C205.06 37.3012 204.938 37.3402 204.93 37.4666C204.866 38.5751 204.404 39.5836 204.139 40.6415C203.845 41.8112 203.484 42.9598 203.163 44.1284C203.062 44.5135 202.883 44.8737 202.635 45.1859C202.389 45.4982 202.08 45.756 201.728 45.9429C200.492 46.6405 198.85 46.3644 197.989 45.2717C197.041 44.0757 197.036 42.2948 198.113 41.3517C199.822 39.8544 201.45 38.2516 203.353 36.985C203.615 36.8101 203.675 36.6004 203.624 36.2074C201.832 37.3486 200.009 38.2337 198.269 39.2632C197.32 39.8207 196.372 40.3549 195.204 40.1621C193.683 39.9092 192.596 38.3191 192.839 36.7132C193.05 35.2864 194.713 34.0483 196.177 34.2495C198.217 34.5309 200.276 34.5804 202.324 34.768C202.485 34.7827 202.654 34.8407 202.754 34.6384C202.718 34.4181 202.514 34.4413 202.371 34.3992C200.424 33.8365 198.481 33.2601 196.525 32.729C194.364 32.1421 193.475 29.7574 194.867 28.0188C195.989 26.6183 198.048 26.4445 199.263 27.8017C200.123 28.7616 200.964 29.7406 201.792 30.7248C202.425 31.4729 202.98 32.3275 203.812 32.9239C203.968 32.6415 203.812 32.4708 203.707 32.2811C202.726 30.5056 201.732 28.7364 200.777 26.9471C200.138 25.7532 200.172 24.592 201.055 23.494C201.776 22.5973 203.046 22.2411 204.345 22.6268C205.276 22.905 206.039 23.9134 206.175 24.9397C206.347 26.239 206.05 27.5098 205.999 28.7954C205.955 29.925 205.875 31.0525 205.808 32.2211C206.081 32.1389 206.142 32.003 206.176 31.8765C206.629 30.2105 207.045 28.533 207.531 26.8755C207.86 25.7543 208.144 24.5952 209.405 24.0409C210.665 23.4866 212.039 23.7395 212.98 24.8133C213.809 25.7553 213.9 27.2537 213.184 28.3423C212.788 28.945 212.184 29.338 211.646 29.7912C210.151 31.0493 208.651 32.3012 207.247 33.6805C207.482 33.8575 207.606 33.7258 207.745 33.6457C209.74 32.494 211.736 31.3475 213.763 30.2527C215.616 29.2506 217.954 30.338 218.157 32.5604C218.318 34.3191 216.838 35.8965 215.207 35.7564C213.112 35.5751 211.01 35.4603 208.909 35.3475C208.582 35.3307 208.254 34.9872 207.842 35.376C209.83 36.0514 211.808 36.5878 213.795 37.0683C215.364 37.4476 216.558 38.3971 216.803 39.7416C216.991 40.7732 216.249 42.338 215.361 42.7785C214.097 43.4108 212.529 43.2253 211.704 42.2854C210.255 40.6352 208.841 38.9534 207.407 37.2906C207.249 37.1073 207.145 36.8323 206.74 36.7964C207.822 38.769 208.875 40.6521 209.895 42.553C211.247 45.0757 210.725 45.6605 209.418 47.122C208.843 47.3718 208.271 47.6289 207.626 47.6415ZM207.325 34.7648C207.102 33.7227 206.165 33.1083 205.183 33.357C204.334 33.5678 203.725 34.6036 203.925 35.4887C204.125 36.3739 205.111 36.9471 206.033 36.7321C206.977 36.514 207.521 35.6837 207.325 34.7648Z" fill="#B8CDB4"/>
<path d="M206.199 37.3838C207.504 37.0803 208.258 35.9307 207.991 34.6578C207.682 33.2131 206.388 32.3617 205.023 32.7062C203.845 33.0034 203.001 34.4333 203.28 35.6567C203.56 36.8801 204.919 37.681 206.199 37.3838Z" fill="#F74700"/>
<path d="M382.446 81.665C385.08 82.8241 386.861 84.7377 387.638 87.4774C388.182 89.4016 386.268 91.0602 384.271 90.4142C382.703 89.9074 381.742 88.7514 381.342 87.1908C380.949 85.665 380.971 84.0928 381.085 82.5291C381.153 81.626 381.538 81.1803 382.446 81.665Z" fill="#F74700"/>
<path d="M381.665 20.0212C384.25 18.7567 385.958 16.7789 386.627 14.0149C387.097 12.0708 385.114 10.4912 383.15 11.2109C381.604 11.7778 380.69 12.9707 380.35 14.546C380.016 16.0855 380.097 17.6556 380.273 19.213C380.371 20.1171 380.773 20.5481 381.665 20.0212Z" fill="#F74700"/>
<path d="M117.263 81.665C114.629 82.8241 112.848 84.7377 112.073 87.4774C111.527 89.4016 113.443 91.0602 115.439 90.4142C117.006 89.9074 117.968 88.7514 118.367 87.1908C118.76 85.665 118.74 84.0928 118.624 82.5291C118.557 81.626 118.172 81.1803 117.263 81.665Z" fill="#F74700"/>
<path d="M118.047 20.0212C115.463 18.7567 113.756 16.7789 113.086 14.0149C112.615 12.0708 114.599 10.4912 116.564 11.2109C118.111 11.7778 119.023 12.9707 119.365 14.546C119.698 16.0855 119.616 17.6556 119.44 19.213C119.338 20.1171 118.936 20.5481 118.047 20.0212Z" fill="#F74700"/>
<path d="M292.681 49.5459C292.801 49.6088 292.928 49.6585 293.059 49.6945C294.766 49.9674 295.799 51.2624 295.613 52.9843C295.467 54.3183 295.328 55.6534 295.288 56.9885C295.258 57.9716 294.926 58.9389 295.144 59.9316C295.117 59.9969 295.091 60.0612 295.064 60.1265C295.265 60.1265 295.114 59.9948 295.142 59.9305C295.242 59.8852 295.37 59.8462 295.376 59.7198C295.442 58.6112 295.903 57.6017 296.168 56.5448C296.462 55.3741 296.823 54.2266 297.143 53.058C297.243 52.6714 297.423 52.3098 297.67 51.9961C297.917 51.6825 298.227 51.4237 298.58 51.2361C299.815 50.5375 301.456 50.8146 302.318 51.9073C303.26 53.1033 303.267 54.8841 302.194 55.8272C300.485 57.3246 298.858 58.9274 296.955 60.1929C296.691 60.3689 296.631 60.5786 296.683 60.9716C298.474 59.8304 300.297 58.9453 302.038 57.9158C302.986 57.3573 303.935 56.8241 305.103 57.0169C306.624 57.2688 307.71 58.8599 307.468 60.4658C307.257 61.8915 305.594 63.1297 304.131 62.9284C302.09 62.6481 300.031 62.5986 297.983 62.411C297.823 62.3963 297.652 62.3373 297.552 62.5396C297.589 62.7598 297.792 62.7377 297.936 62.7798C299.883 63.3425 301.827 63.9189 303.783 64.45C305.943 65.0359 306.831 67.4216 305.439 69.1602C304.317 70.5607 302.259 70.7345 301.043 69.3773C300.183 68.4173 299.344 67.4384 298.514 66.4542C297.882 65.7061 297.327 64.8515 296.493 64.2551C296.337 64.5375 296.493 64.7082 296.599 64.8978C297.58 66.6734 298.573 68.4426 299.53 70.2319C300.168 71.4258 300.134 72.5859 299.251 73.685C298.53 74.5817 297.259 74.9379 295.962 74.5512C295.03 74.274 294.267 73.2656 294.132 72.2393C293.959 70.9389 294.256 69.6681 294.307 68.3836C294.351 67.254 294.431 66.1265 294.497 64.9579C294.226 65.0401 294.163 65.176 294.13 65.3025C293.677 66.9684 293.26 68.646 292.775 70.3025C292.446 71.4247 292.161 72.5838 290.901 73.1381C289.641 73.6924 288.267 73.4395 287.326 72.3657C286.496 71.4237 286.406 69.9242 287.121 68.8367C287.517 68.234 288.121 67.8409 288.66 67.3878C290.155 66.1233 291.655 64.8778 293.059 63.4974C292.825 63.3215 292.7 63.4521 292.561 63.5333C290.567 64.685 288.57 65.8304 286.544 66.9263C284.689 67.9284 282.352 66.8409 282.149 64.6175C281.988 62.8599 283.469 61.2825 285.099 61.4226C287.195 61.6039 289.296 61.7187 291.396 61.8315C291.725 61.8483 292.052 62.1918 292.464 61.803C290.476 61.1265 288.497 60.5902 286.512 60.1107C284.942 59.7314 283.748 58.7819 283.503 57.4374C283.315 56.4058 284.057 54.8409 284.944 54.3994C286.209 53.7672 287.777 53.9537 288.603 54.8936C290.052 56.5438 291.465 58.2256 292.899 59.8884C293.057 60.0707 293.161 60.3467 293.566 60.3826C292.484 58.41 291.431 56.5269 290.412 54.626C289.059 52.1033 289.582 51.5185 290.887 50.057C291.465 49.8157 292.036 49.5543 292.681 49.5459ZM292.982 62.4226C293.204 63.4648 294.141 64.0791 295.123 63.8304C295.974 63.6197 296.583 62.5838 296.381 61.6987C296.18 60.8135 295.196 60.2403 294.274 60.4542C293.331 60.6734 292.786 61.5037 292.982 62.4226Z" fill="#B8CDB4"/>
<path d="M294.109 59.8041C292.803 60.1065 292.048 61.2572 292.317 62.5301C292.625 63.9748 293.919 64.8252 295.283 64.4816C296.462 64.1845 297.306 62.7535 297.027 61.5312C296.749 60.3088 295.388 59.5059 294.109 59.8041Z" fill="#F74700"/>
</svg>
